<?xml version="1.0" standalone="no"?>
<!DOCTYPE svg PUBLIC "-//W3C//DTD SVG 1.1//EN"
  "http://www.w3.org/Graphics/SVG/1.1/DTD/svg11.dtd">
<!-- Created with matplotlib (http://matplotlib.sourceforge.net/) -->
<svg width="300pt" height="210pt" viewBox="0 0 300 210"
   xmlns="http://www.w3.org/2000/svg"
   xmlns:xlink="http://www.w3.org/1999/xlink"
   version="1.1"
   id="svg1">
<filter id="colorAdd"><feComposite in="SourceGraphic" in2="BackgroundImage" operator="arithmetic" k2="1" k3="1"/></filter>
<g id="figure1">
<g id="patch1">
<path style="fill: #ffffff; stroke: #ffffff; stroke-width: 1.000000; stroke-linejoin: round; stroke-linecap: square;  opacity: 1.000000"  d="M0.000000 210.400000L300.600000 210.400000L300.600000 0.000000
L0.000000 0.000000z"/>
</g>
<g id="axes1">
<g id="patch2">
<path style="fill: none; opacity: 0.000000"  d="M10.800000 183.600000L289.800000 183.600000L289.800000 10.800000
L10.800000 10.800000z"/>
</g>
<g id="LineCollection1">
<defs>
<path id="coll0_0_67a1752da5b224948114036b104ffb15" d="M34.050000 -26.800000L34.050000 -26.800000"/>
<path id="coll0_1_be8dad48a87d45b17cbbbaa9a250f37e" d="M80.550000 -26.800000L80.550000 -134.951541"/>
<path id="coll0_2_b6596077252fe6022ba1ae4a69ae0fdd" d="M127.050000 -26.800000L127.050000 -184.426814"/>
<path id="coll0_3_f23a7bf33f7536821cbde119d54c9176" d="M173.550000 -26.800000L173.550000 -178.163433"/>
<path id="coll0_4_5aba27ae21d7f1c9dc28b8d3456189a6" d="M220.050000 -26.800000L220.050000 -120.951385"/>
<path id="coll0_5_9157e9b525735b27018af3bee817a961" d="M266.550000 -26.800000L266.550000 -26.800000"/>
</defs>
<defs>
  <clipPath id="p4af55c6b0ec7b03ece2925f49276dbb5">
<rect x="10.800000" y="10.800000" width="279.000000" height="172.800000"/>
  </clipPath>
</defs><g clip-path="url(#p4af55c6b0ec7b03ece2925f49276dbb5)"><use style="fill: none; stroke: #000000; stroke-width: 1.000000; stroke-linejoin: round; stroke-linecap: butt; stroke-dasharray: 6.000000,6.000000; stroke-dashoffset: 0.000000; opacity: 1.000000" xlink:href="#coll0_0_67a1752da5b224948114036b104ffb15" x="0.000000" y="210.400000"/>
</g><g clip-path="url(#p4af55c6b0ec7b03ece2925f49276dbb5)"><use style="fill: none; stroke: #000000; stroke-width: 1.000000; stroke-linejoin: round; stroke-linecap: butt; stroke-dasharray: 6.000000,6.000000; stroke-dashoffset: 0.000000; opacity: 1.000000" xlink:href="#coll0_1_be8dad48a87d45b17cbbbaa9a250f37e" x="0.000000" y="210.400000"/>
</g><g clip-path="url(#p4af55c6b0ec7b03ece2925f49276dbb5)"><use style="fill: none; stroke: #000000; stroke-width: 1.000000; stroke-linejoin: round; stroke-linecap: butt; stroke-dasharray: 6.000000,6.000000; stroke-dashoffset: 0.000000; opacity: 1.000000" xlink:href="#coll0_2_b6596077252fe6022ba1ae4a69ae0fdd" x="0.000000" y="210.400000"/>
</g><g clip-path="url(#p4af55c6b0ec7b03ece2925f49276dbb5)"><use style="fill: none; stroke: #000000; stroke-width: 1.000000; stroke-linejoin: round; stroke-linecap: butt; stroke-dasharray: 6.000000,6.000000; stroke-dashoffset: 0.000000; opacity: 1.000000" xlink:href="#coll0_3_f23a7bf33f7536821cbde119d54c9176" x="0.000000" y="210.400000"/>
</g><g clip-path="url(#p4af55c6b0ec7b03ece2925f49276dbb5)"><use style="fill: none; stroke: #000000; stroke-width: 1.000000; stroke-linejoin: round; stroke-linecap: butt; stroke-dasharray: 6.000000,6.000000; stroke-dashoffset: 0.000000; opacity: 1.000000" xlink:href="#coll0_4_5aba27ae21d7f1c9dc28b8d3456189a6" x="0.000000" y="210.400000"/>
</g><g clip-path="url(#p4af55c6b0ec7b03ece2925f49276dbb5)"><use style="fill: none; stroke: #000000; stroke-width: 1.000000; stroke-linejoin: round; stroke-linecap: butt; stroke-dasharray: 6.000000,6.000000; stroke-dashoffset: 0.000000; opacity: 1.000000" xlink:href="#coll0_5_9157e9b525735b27018af3bee817a961" x="0.000000" y="210.400000"/>
</g></g>
<g id="line2d1">
<path style="fill: none; stroke: #0000ff; stroke-width: 2.000000; stroke-linejoin: round; stroke-linecap: square;  opacity: 1.000000" clip-path="url(#p4af55c6b0ec7b03ece2925f49276dbb5)" d="M34.050000 183.600000L36.398485 176.695718L38.746970 169.946351
L41.095455 163.351660L43.443939 156.911401L45.792424 150.625330
L48.140909 144.493197L50.489394 138.514751L52.837879 132.689737
L55.186364 127.017896L57.534848 121.498966L59.883333 116.132682
L62.231818 110.918774L64.580303 105.856969L66.928788 100.946990
L69.277273 96.188556L71.625758 91.581382L73.974242 87.125179
L76.322727 82.819654L78.671212 78.664507L81.019697 74.659437
L83.368182 70.804135L85.716667 67.098290L88.065152 63.541584
L90.413636 60.133695L92.762121 56.874293L95.110606 53.763047
L97.459091 50.799616L99.807576 47.983655L102.156061 45.314813
L104.504545 42.792731L106.853030 40.417046L109.201515 38.187386
L111.550000 36.103373L113.898485 34.164621L116.246970 32.370737
L118.595455 30.721319L120.943939 29.215959L123.292424 27.854239
L125.640909 26.635730L127.989394 25.559999L130.337879 24.626597
L132.686364 23.835070L135.034848 23.184952L137.383333 22.675764
L139.731818 22.307018L142.080303 22.078214L144.428788 21.988837
L146.777273 22.038360L149.125758 22.226245L151.474242 22.551934
L153.822727 23.014859L156.171212 23.614432L158.519697 24.350050
L160.868182 25.221091L163.216667 26.226916L165.565152 27.366864
L167.913636 28.640254L170.262121 30.046381L172.610606 31.584517
L174.959091 33.253910L177.307576 35.053778L179.656061 36.983311
L182.004545 39.041670L184.353030 41.227981L186.701515 43.541334
L189.050000 45.980781L191.398485 48.545332L193.746970 51.233954
L196.095455 54.045563L198.443939 56.979023L200.792424 60.033142
L203.140909 63.206661L205.489394 66.498256L207.837879 69.906523
L210.186364 73.429974L212.534848 77.067030L214.883333 80.816005
L217.231818 84.675094L219.580303 88.642361L221.928788 92.715720
L224.277273 96.892913L226.625758 101.171483L228.974242 105.548744
L231.322727 110.021744L233.671212 114.587210L236.019697 119.241493
L238.368182 123.980484L240.716667 128.799509L243.065152 133.693188
L245.413636 138.655237L247.762121 143.678192L250.110606 148.752992
L252.459091 153.868341L254.807576 159.009652L257.156061 164.157173
L259.504545 169.282261L261.853030 174.338645L264.201515 179.234883
L266.550000 183.600000"/>
</g>
<g id="line2d2">
<path style="fill: none; stroke: #ff0000; stroke-width: 2.000000; stroke-linejoin: round; stroke-linecap: square;  opacity: 1.000000" clip-path="url(#p4af55c6b0ec7b03ece2925f49276dbb5)" d="M34.050000 183.600000L80.550000 75.448459L127.050000 25.973186
L173.550000 32.236567L220.050000 89.448615L266.550000 183.600000"/>
</g>
<g id="mpl_toolkits.axisartist.axis_artist1">
<g id="patch3">
<path style="fill: none; stroke: #000000; stroke-width: 1.000000; stroke-linejoin: round; stroke-linecap: round;  opacity: 1.000000"  d="M10.800000 183.600000L10.800000 10.800000L10.800000 -0.081966"/>
<path style="fill: #0000ff; stroke: #000000; stroke-width: 1.000000; stroke-linejoin: round; stroke-linecap: round;  opacity: 1.000000"  d="M8.400000 4.718034L10.800000 -0.081966L13.200000 4.718034L8.400000 4.718034
z"/>
</g>
<defs><path id="m3400efa6b1638b3fea9e19e898273957" d="M0.000000 0.000000L4.000000 0.000000"/></defs>
<g ><use style="fill: none; stroke: #000000; stroke-width: 0.500000; stroke-linejoin: round; stroke-linecap: butt;  opacity: 1.000000" xlink:href="#m3400efa6b1638b3fea9e19e898273957" x="10.800000" y="183.600000"/>
<use style="fill: none; stroke: #000000; stroke-width: 0.500000; stroke-linejoin: round; stroke-linecap: butt;  opacity: 1.000000" xlink:href="#m3400efa6b1638b3fea9e19e898273957" x="10.800000" y="183.600000"/>
</g><g ><use style="fill: none; stroke: #000000; stroke-width: 0.500000; stroke-linejoin: round; stroke-linecap: butt;  opacity: 1.000000" xlink:href="#m3400efa6b1638b3fea9e19e898273957" x="10.800000" y="149.040000"/>
<use style="fill: none; stroke: #000000; stroke-width: 0.500000; stroke-linejoin: round; stroke-linecap: butt;  opacity: 1.000000" xlink:href="#m3400efa6b1638b3fea9e19e898273957" x="10.800000" y="149.040000"/>
</g><g ><use style="fill: none; stroke: #000000; stroke-width: 0.500000; stroke-linejoin: round; stroke-linecap: butt;  opacity: 1.000000" xlink:href="#m3400efa6b1638b3fea9e19e898273957" x="10.800000" y="114.480000"/>
<use style="fill: none; stroke: #000000; stroke-width: 0.500000; stroke-linejoin: round; stroke-linecap: butt;  opacity: 1.000000" xlink:href="#m3400efa6b1638b3fea9e19e898273957" x="10.800000" y="114.480000"/>
</g><g ><use style="fill: none; stroke: #000000; stroke-width: 0.500000; stroke-linejoin: round; stroke-linecap: butt;  opacity: 1.000000" xlink:href="#m3400efa6b1638b3fea9e19e898273957" x="10.800000" y="79.920000"/>
<use style="fill: none; stroke: #000000; stroke-width: 0.500000; stroke-linejoin: round; stroke-linecap: butt;  opacity: 1.000000" xlink:href="#m3400efa6b1638b3fea9e19e898273957" x="10.800000" y="79.920000"/>
</g><g ><use style="fill: none; stroke: #000000; stroke-width: 0.500000; stroke-linejoin: round; stroke-linecap: butt;  opacity: 1.000000" xlink:href="#m3400efa6b1638b3fea9e19e898273957" x="10.800000" y="45.360000"/>
<use style="fill: none; stroke: #000000; stroke-width: 0.500000; stroke-linejoin: round; stroke-linecap: butt;  opacity: 1.000000" xlink:href="#m3400efa6b1638b3fea9e19e898273957" x="10.800000" y="45.360000"/>
</g><g ><use style="fill: none; stroke: #000000; stroke-width: 0.500000; stroke-linejoin: round; stroke-linecap: butt;  opacity: 1.000000" xlink:href="#m3400efa6b1638b3fea9e19e898273957" x="10.800000" y="10.800000"/>
<use style="fill: none; stroke: #000000; stroke-width: 0.500000; stroke-linejoin: round; stroke-linecap: butt;  opacity: 1.000000" xlink:href="#m3400efa6b1638b3fea9e19e898273957" x="10.800000" y="10.800000"/>
</g></g>
<g id="mpl_toolkits.axisartist.axis_artist2">
<g id="patch4">
<path style="fill: none; stroke: #000000; stroke-width: 1.000000; stroke-linejoin: round; stroke-linecap: round;  opacity: 1.000000"  d="M10.800000 183.600000L289.800000 183.600000L300.681966 183.600000"/>
<path style="fill: #0000ff; stroke: #000000; stroke-width: 1.000000; stroke-linejoin: round; stroke-linecap: round;  opacity: 1.000000"  d="M295.881966 181.200000L300.681966 183.600000L295.881966 186.000000
L295.881966 181.200000z"/>
</g>
<defs><path id="m30e32995789d870ad79a2e54c91cf9c6" d="M0.000000 0.000000L0.000000 -4.000000"/></defs>
<g ><use style="fill: none; stroke: #000000; stroke-width: 0.500000; stroke-linejoin: round; stroke-linecap: butt;  opacity: 1.000000" xlink:href="#m30e32995789d870ad79a2e54c91cf9c6" x="34.050000" y="183.600000"/>
<use style="fill: none; stroke: #000000; stroke-width: 0.500000; stroke-linejoin: round; stroke-linecap: butt;  opacity: 1.000000" xlink:href="#m30e32995789d870ad79a2e54c91cf9c6" x="34.050000" y="183.600000"/>
</g><g ><use style="fill: none; stroke: #000000; stroke-width: 0.500000; stroke-linejoin: round; stroke-linecap: butt;  opacity: 1.000000" xlink:href="#m30e32995789d870ad79a2e54c91cf9c6" x="80.550000" y="183.600000"/>
<use style="fill: none; stroke: #000000; stroke-width: 0.500000; stroke-linejoin: round; stroke-linecap: butt;  opacity: 1.000000" xlink:href="#m30e32995789d870ad79a2e54c91cf9c6" x="80.550000" y="183.600000"/>
</g><g ><use style="fill: none; stroke: #000000; stroke-width: 0.500000; stroke-linejoin: round; stroke-linecap: butt;  opacity: 1.000000" xlink:href="#m30e32995789d870ad79a2e54c91cf9c6" x="127.050000" y="183.600000"/>
<use style="fill: none; stroke: #000000; stroke-width: 0.500000; stroke-linejoin: round; stroke-linecap: butt;  opacity: 1.000000" xlink:href="#m30e32995789d870ad79a2e54c91cf9c6" x="127.050000" y="183.600000"/>
</g><g ><use style="fill: none; stroke: #000000; stroke-width: 0.500000; stroke-linejoin: round; stroke-linecap: butt;  opacity: 1.000000" xlink:href="#m30e32995789d870ad79a2e54c91cf9c6" x="173.550000" y="183.600000"/>
<use style="fill: none; stroke: #000000; stroke-width: 0.500000; stroke-linejoin: round; stroke-linecap: butt;  opacity: 1.000000" xlink:href="#m30e32995789d870ad79a2e54c91cf9c6" x="173.550000" y="183.600000"/>
</g><g ><use style="fill: none; stroke: #000000; stroke-width: 0.500000; stroke-linejoin: round; stroke-linecap: butt;  opacity: 1.000000" xlink:href="#m30e32995789d870ad79a2e54c91cf9c6" x="220.050000" y="183.600000"/>
<use style="fill: none; stroke: #000000; stroke-width: 0.500000; stroke-linejoin: round; stroke-linecap: butt;  opacity: 1.000000" xlink:href="#m30e32995789d870ad79a2e54c91cf9c6" x="220.050000" y="183.600000"/>
</g><g ><use style="fill: none; stroke: #000000; stroke-width: 0.500000; stroke-linejoin: round; stroke-linecap: butt;  opacity: 1.000000" xlink:href="#m30e32995789d870ad79a2e54c91cf9c6" x="266.550000" y="183.600000"/>
<use style="fill: none; stroke: #000000; stroke-width: 0.500000; stroke-linejoin: round; stroke-linecap: butt;  opacity: 1.000000" xlink:href="#m30e32995789d870ad79a2e54c91cf9c6" x="266.550000" y="183.600000"/>
</g><g id="text1">
<defs>
<path id="c_277960698c3e9ebfcde4d2161536ce57" d="M7.812500 -2.875000q1.765625 1.359375 4.984375 1.359375q3.125000 0.000000 5.515625 -3.000000q2.390625 -3.000000 3.265625 -6.562500l4.546875 -17.734375q1.078125 -4.828125 1.078125 -6.593750q0.000000 -2.484375 -1.390625 -4.343750q-1.390625 -1.859375 -3.890625 -1.859375q-3.171875 0.000000 -5.953125 1.984375q-2.781250 1.984375 -4.687500 5.031250q-1.906250 3.046875 -2.687500 6.171875q-0.187500 0.640625 -0.781250 0.640625l-1.218750 0.000000q-0.781250 0.000000 -0.781250 -0.937500l0.000000 -0.281250q0.968750 -3.718750 3.312500 -7.250000q2.343750 -3.546875 5.734375 -5.734375q3.406250 -2.203125 7.265625 -2.203125q3.656250 0.000000 6.609375 1.953125q2.953125 1.953125 4.171875 5.312500q1.718750 -3.062500 4.375000 -5.156250q2.656250 -2.109375 5.828125 -2.109375q2.156250 0.000000 4.390625 0.765625q2.250000 0.750000 3.671875 2.312500q1.421875 1.562500 1.421875 3.906250q0.000000 2.531250 -1.640625 4.375000q-1.640625 1.828125 -4.171875 1.828125q-1.609375 0.000000 -2.687500 -1.031250q-1.078125 -1.031250 -1.078125 -2.593750q0.000000 -2.093750 1.437500 -3.671875q1.453125 -1.593750 3.453125 -1.890625q-1.812500 -1.421875 -4.984375 -1.421875q-3.218750 0.000000 -5.593750 2.984375q-2.359375 2.984375 -3.343750 6.640625l-4.390625 17.671875q-1.078125 4.015625 -1.078125 6.593750q0.000000 2.546875 1.437500 4.375000q1.437500 1.828125 3.843750 1.828125q4.687500 0.000000 8.359375 -4.125000q3.687500 -4.125000 4.859375 -9.062500q0.203125 -0.578125 0.781250 -0.578125l1.234375 0.000000q0.390625 0.000000 0.625000 0.265625q0.250000 0.265625 0.250000 0.609375q0.000000 0.093750 -0.093750 0.296875q-1.421875 5.953125 -5.968750 10.593750q-4.531250 4.640625 -10.250000 4.640625q-3.656250 0.000000 -6.609375 -1.968750q-2.953125 -1.984375 -4.187500 -5.359375q-1.562500 2.937500 -4.328125 5.140625q-2.750000 2.187500 -5.875000 2.187500q-2.140625 0.000000 -4.421875 -0.765625q-2.265625 -0.750000 -3.687500 -2.312500q-1.406250 -1.562500 -1.406250 -3.953125q0.000000 -2.343750 1.625000 -4.265625q1.640625 -1.937500 4.093750 -1.937500q1.656250 0.000000 2.781250 1.000000q1.125000 1.000000 1.125000 2.609375q0.000000 2.109375 -1.406250 3.671875q-1.390625 1.562500 -3.484375 1.953125"/>
<path id="c_f47f2818876b2f1a61c47f270461e46e" d="M25.000000 2.203125q-12.250000 0.000000 -16.671875 -10.078125q-4.421875 -10.093750 -4.421875 -24.015625q0.000000 -8.687500 1.578125 -16.343750q1.593750 -7.671875 6.296875 -13.015625q4.718750 -5.359375 13.218750 -5.359375q6.593750 0.000000 10.781250 3.234375q4.203125 3.218750 6.406250 8.328125q2.203125 5.093750 3.000000 10.937500q0.812500 5.828125 0.812500 12.218750q0.000000 8.593750 -1.593750 16.093750q-1.578125 7.500000 -6.218750 12.750000q-4.640625 5.250000 -13.187500 5.250000M25.000000 -0.390625q5.562500 0.000000 8.296875 -5.703125q2.734375 -5.718750 3.375000 -12.656250q0.640625 -6.937500 0.640625 -14.750000q0.000000 -7.515625 -0.640625 -13.859375q-0.640625 -6.359375 -3.359375 -11.500000q-2.703125 -5.156250 -8.312500 -5.156250q-5.656250 0.000000 -8.390625 5.187500q-2.734375 5.171875 -3.375000 11.500000q-0.640625 6.312500 -0.640625 13.828125q0.000000 5.562500 0.265625 10.500000q0.281250 4.937500 1.453125 10.187500q1.171875 5.250000 3.781250 8.843750q2.609375 3.578125 6.906250 3.578125"/>
<path id="c_7bbc93c01755cdeb977d08bdfb9ce616" d="M7.515625 -13.281250q-0.828125 0.000000 -1.375000 -0.625000q-0.531250 -0.640625 -0.531250 -1.375000q0.000000 -0.828125 0.531250 -1.406250q0.546875 -0.593750 1.375000 -0.593750l62.796875 0.000000q0.734375 0.000000 1.265625 0.593750q0.546875 0.578125 0.546875 1.406250q0.000000 0.734375 -0.546875 1.375000q-0.531250 0.625000 -1.265625 0.625000zM7.515625 -32.718750q-0.828125 0.000000 -1.375000 -0.578125q-0.531250 -0.593750 -0.531250 -1.421875q0.000000 -0.734375 0.531250 -1.359375q0.546875 -0.640625 1.375000 -0.640625l62.796875 0.000000q0.734375 0.000000 1.265625 0.640625q0.546875 0.625000 0.546875 1.359375q0.000000 0.828125 -0.546875 1.421875q-0.531250 0.578125 -1.265625 0.578125z"/>
</defs>
<g id="mathtext1">
<g style="fill: #000000" transform="translate(18.050000,199.600000)">
<use xlink:href="#c_277960698c3e9ebfcde4d2161536ce57" transform="translate(0.000000,-4.000000)scale(0.120000)"/>
<use xlink:href="#c_f47f2818876b2f1a61c47f270461e46e" transform="translate(6.849609,-0.938875)scale(0.084000)"/>
<use xlink:href="#c_7bbc93c01755cdeb977d08bdfb9ce616" transform="translate(14.956641,-4.000000)scale(0.120000)"/>
<use xlink:href="#c_f47f2818876b2f1a61c47f270461e46e" transform="translate(25.032422,-4.000000)scale(0.120000)"/>
</g>
</g>
</g>
<g id="text2">
<defs>
<path id="c_1a459ac34855d27ec37ccb0e66298d36" d="M9.281250 -0.000000l0.000000 -3.515625q12.500000 0.000000 12.500000 -3.171875l0.000000 -52.500000q-5.171875 2.500000 -13.093750 2.500000l0.000000 -3.515625q12.265625 0.000000 18.515625 -6.406250l1.406250 0.000000q0.343750 0.000000 0.656250 0.281250q0.328125 0.265625 0.328125 0.609375l0.000000 59.031250q0.000000 3.171875 12.500000 3.171875l0.000000 3.515625z"/>
</defs>
<g id="mathtext2">
<g style="fill: #000000" transform="translate(74.050000,199.600000)">
<use xlink:href="#c_277960698c3e9ebfcde4d2161536ce57" transform="translate(0.000000,-4.703125)scale(0.120000)"/>
<use xlink:href="#c_1a459ac34855d27ec37ccb0e66298d36" transform="translate(6.849609,-1.642000)scale(0.084000)"/>
</g>
</g>
</g>
<g id="text3">
<defs>
<path id="c_1210e7f4d85518601ea3049211d562d0" d="M4.984375 -0.000000l0.000000 -2.687500q0.000000 -0.250000 0.187500 -0.531250l15.531250 -17.187500q3.515625 -3.812500 5.703125 -6.390625q2.203125 -2.593750 4.343750 -5.968750q2.156250 -3.375000 3.406250 -6.859375q1.250000 -3.484375 1.250000 -7.390625q0.000000 -4.109375 -1.515625 -7.843750q-1.515625 -3.734375 -4.515625 -5.984375q-3.000000 -2.250000 -7.250000 -2.250000q-4.343750 0.000000 -7.812500 2.625000q-3.468750 2.609375 -4.890625 6.750000q0.390625 -0.093750 1.078125 -0.093750q2.250000 0.000000 3.828125 1.515625q1.593750 1.515625 1.593750 3.906250q0.000000 2.296875 -1.593750 3.890625q-1.578125 1.578125 -3.828125 1.578125q-2.343750 0.000000 -3.937500 -1.625000q-1.578125 -1.640625 -1.578125 -3.843750q0.000000 -3.765625 1.406250 -7.046875q1.421875 -3.296875 4.078125 -5.859375q2.671875 -2.578125 6.015625 -3.937500q3.343750 -1.375000 7.093750 -1.375000q5.718750 0.000000 10.640625 2.421875q4.937500 2.421875 7.812500 6.843750q2.890625 4.406250 2.890625 10.328125q0.000000 4.343750 -1.906250 8.250000q-1.906250 3.906250 -4.890625 7.109375q-2.968750 3.187500 -7.609375 7.250000q-4.640625 4.046875 -6.093750 5.406250l-11.328125 10.890625l9.609375 0.000000q7.078125 0.000000 11.843750 -0.109375q4.765625 -0.125000 5.046875 -0.375000q1.171875 -1.265625 2.406250 -9.234375l2.921875 0.000000l-2.828125 17.828125z"/>
</defs>
<g id="mathtext3">
<g style="fill: #000000" transform="translate(120.550000,199.600000)">
<use xlink:href="#c_277960698c3e9ebfcde4d2161536ce57" transform="translate(0.000000,-4.703125)scale(0.120000)"/>
<use xlink:href="#c_1210e7f4d85518601ea3049211d562d0" transform="translate(6.849609,-1.642000)scale(0.084000)"/>
</g>
</g>
</g>
<g id="text4">
<defs>
<path id="c_4b4b135d81e9b78c16b841add313c4b1" d="M9.515625 -7.718750q2.343750 3.421875 6.296875 5.078125q3.968750 1.656250 8.500000 1.656250q5.812500 0.000000 8.250000 -4.953125q2.453125 -4.953125 2.453125 -11.250000q0.000000 -2.828125 -0.515625 -5.656250q-0.515625 -2.843750 -1.734375 -5.281250q-1.218750 -2.437500 -3.343750 -3.906250q-2.125000 -1.468750 -5.203125 -1.468750l-6.640625 0.000000q-0.875000 0.000000 -0.875000 -0.921875l0.000000 -0.875000q0.000000 -0.781250 0.875000 -0.781250l5.515625 -0.453125q3.515625 0.000000 5.828125 -2.625000q2.328125 -2.640625 3.406250 -6.421875q1.078125 -3.781250 1.078125 -7.203125q0.000000 -4.781250 -2.250000 -7.859375q-2.250000 -3.078125 -6.843750 -3.078125q-3.796875 0.000000 -7.265625 1.437500q-3.468750 1.437500 -5.515625 4.375000q0.187500 -0.046875 0.328125 -0.078125q0.156250 -0.031250 0.343750 -0.031250q2.250000 0.000000 3.765625 1.562500q1.515625 1.562500 1.515625 3.765625q0.000000 2.156250 -1.515625 3.718750q-1.515625 1.562500 -3.765625 1.562500q-2.187500 0.000000 -3.750000 -1.562500q-1.562500 -1.562500 -1.562500 -3.718750q0.000000 -4.296875 2.578125 -7.468750q2.593750 -3.171875 6.671875 -4.812500q4.078125 -1.640625 8.171875 -1.640625q3.031250 0.000000 6.390625 0.906250q3.375000 0.906250 6.109375 2.593750q2.734375 1.687500 4.468750 4.328125q1.734375 2.625000 1.734375 6.000000q0.000000 4.203125 -1.875000 7.765625q-1.875000 3.562500 -5.156250 6.156250q-3.265625 2.578125 -7.171875 3.843750q4.343750 0.828125 8.250000 3.281250q3.906250 2.437500 6.265625 6.250000q2.375000 3.796875 2.375000 8.203125q0.000000 5.515625 -3.031250 9.984375q-3.015625 4.468750 -7.953125 6.984375q-4.937500 2.515625 -10.406250 2.515625q-4.687500 0.000000 -9.406250 -1.796875q-4.703125 -1.781250 -7.703125 -5.343750q-3.000000 -3.562500 -3.000000 -8.546875q0.000000 -2.484375 1.656250 -4.140625q1.656250 -1.656250 4.156250 -1.656250q1.609375 0.000000 2.953125 0.750000q1.343750 0.750000 2.093750 2.125000q0.765625 1.359375 0.765625 2.921875q0.000000 2.453125 -1.718750 4.109375q-1.703125 1.656250 -4.093750 1.656250z"/>
</defs>
<g id="mathtext4">
<g style="fill: #000000" transform="translate(167.050000,199.600000)">
<use xlink:href="#c_277960698c3e9ebfcde4d2161536ce57" transform="translate(0.000000,-4.703125)scale(0.120000)"/>
<use xlink:href="#c_4b4b135d81e9b78c16b841add313c4b1" transform="translate(6.849609,-1.642000)scale(0.084000)"/>
</g>
</g>
</g>
<g id="text5">
<defs>
<path id="c_f6bfecfef5ea966626c74db776cc6a54" d="M2.781250 -16.500000l0.000000 -3.515625l30.906250 -46.093750q0.343750 -0.500000 1.031250 -0.500000l1.468750 0.000000q1.125000 0.000000 1.125000 1.125000l0.000000 45.468750l9.812500 0.000000l0.000000 3.515625l-9.812500 0.000000l0.000000 9.812500q0.000000 2.046875 2.921875 2.609375q2.937500 0.562500 6.781250 0.562500l0.000000 3.515625l-27.531250 0.000000l0.000000 -3.515625q3.859375 0.000000 6.781250 -0.562500q2.937500 -0.562500 2.937500 -2.609375l0.000000 -9.812500zM6.109375 -20.015625l23.671875 0.000000l0.000000 -35.406250z"/>
</defs>
<g id="mathtext5">
<g style="fill: #000000" transform="translate(213.550000,199.600000)">
<use xlink:href="#c_277960698c3e9ebfcde4d2161536ce57" transform="translate(0.000000,-4.703125)scale(0.120000)"/>
<use xlink:href="#c_f6bfecfef5ea966626c74db776cc6a54" transform="translate(6.849609,-1.642000)scale(0.084000)"/>
</g>
</g>
</g>
<g id="text6">
<defs>
<path id="c_7d09e94cce4bdf71f2297f5bbc354b76" d="M8.687500 -11.375000q1.031250 2.921875 3.156250 5.328125q2.125000 2.390625 5.031250 3.734375q2.906250 1.328125 6.031250 1.328125q7.218750 0.000000 9.953125 -5.609375q2.734375 -5.609375 2.734375 -13.625000q0.000000 -3.468750 -0.125000 -5.828125q-0.109375 -2.375000 -0.656250 -4.562500q-0.921875 -3.515625 -3.250000 -6.156250q-2.312500 -2.640625 -5.687500 -2.640625q-3.359375 0.000000 -5.781250 1.031250q-2.421875 1.015625 -3.937500 2.390625q-1.500000 1.359375 -2.671875 2.875000q-1.171875 1.515625 -1.468750 1.609375l-1.125000 0.000000q-0.250000 0.000000 -0.625000 -0.312500q-0.359375 -0.312500 -0.359375 -0.609375l0.000000 -33.406250q0.000000 -0.234375 0.312500 -0.500000q0.328125 -0.281250 0.671875 -0.281250l0.296875 0.000000q6.734375 3.234375 14.296875 3.234375q7.421875 0.000000 14.312500 -3.234375l0.296875 0.000000q0.343750 0.000000 0.625000 0.250000q0.296875 0.250000 0.296875 0.531250l0.000000 0.937500q0.000000 0.484375 -0.187500 0.484375q-3.421875 4.546875 -8.578125 7.093750q-5.156250 2.531250 -10.671875 2.531250q-4.000000 0.000000 -8.203125 -1.125000l0.000000 18.890625q3.328125 -2.687500 5.937500 -3.828125q2.609375 -1.156250 6.671875 -1.156250q5.515625 0.000000 9.875000 3.187500q4.375000 3.171875 6.718750 8.281250q2.343750 5.093750 2.343750 10.406250q0.000000 6.015625 -2.953125 11.140625q-2.953125 5.125000 -8.031250 8.156250q-5.078125 3.031250 -11.031250 3.031250q-4.937500 0.000000 -9.062500 -2.531250q-4.125000 -2.546875 -6.500000 -6.843750q-2.359375 -4.296875 -2.359375 -9.140625q0.000000 -2.250000 1.453125 -3.656250q1.468750 -1.421875 3.671875 -1.421875q2.203125 0.000000 3.687500 1.453125q1.484375 1.437500 1.484375 3.625000q0.000000 2.156250 -1.484375 3.640625q-1.484375 1.484375 -3.687500 1.484375q-0.343750 0.000000 -0.781250 -0.062500q-0.437500 -0.078125 -0.640625 -0.125000"/>
</defs>
<g id="mathtext6">
<g style="fill: #000000" transform="translate(250.550000,199.600000)">
<use xlink:href="#c_277960698c3e9ebfcde4d2161536ce57" transform="translate(0.000000,-4.000000)scale(0.120000)"/>
<use xlink:href="#c_7d09e94cce4bdf71f2297f5bbc354b76" transform="translate(6.849609,-0.938875)scale(0.084000)"/>
<use xlink:href="#c_7bbc93c01755cdeb977d08bdfb9ce616" transform="translate(14.956641,-4.000000)scale(0.120000)"/>
<use xlink:href="#c_1a459ac34855d27ec37ccb0e66298d36" transform="translate(25.032422,-4.000000)scale(0.120000)"/>
</g>
</g>
</g>
</g>
</g>
</g>
</svg>
