<?xml version="1.0" encoding="UTF-8" standalone="no"?>
<svg
   xmlns:dc="http://purl.org/dc/elements/1.1/"
   xmlns:cc="http://creativecommons.org/ns#"
   xmlns:rdf="http://www.w3.org/1999/02/22-rdf-syntax-ns#"
   xmlns:svg="http://www.w3.org/2000/svg"
   xmlns="http://www.w3.org/2000/svg"
   xmlns:xlink="http://www.w3.org/1999/xlink"
   xmlns:sodipodi="http://sodipodi.sourceforge.net/DTD/sodipodi-0.dtd"
   xmlns:inkscape="http://www.inkscape.org/namespaces/inkscape"
   width="563.479"
   height="466.04025"
   viewBox="0 0 563.479 466.04025"
   id="svg2"
   version="1.1"
   inkscape:version="0.47 r22583"
   sodipodi:docname="exemplo_funcao_L.svg"
   inkscape:export-filename="/home/joel/Documentos/proposta_mestrado/figuras/exemplo_funcao_L.png"
   inkscape:export-xdpi="159.72"
   inkscape:export-ydpi="159.72">
  <metadata
     id="metadata140">
    <rdf:RDF>
      <cc:Work
         rdf:about="">
        <dc:format>image/svg+xml</dc:format>
        <dc:type
           rdf:resource="http://purl.org/dc/dcmitype/StillImage" />
        <dc:title />
      </cc:Work>
    </rdf:RDF>
  </metadata>
  <sodipodi:namedview
     pagecolor="#ffffff"
     bordercolor="#666666"
     borderopacity="1"
     objecttolerance="10"
     gridtolerance="10"
     guidetolerance="10"
     inkscape:pageopacity="0"
     inkscape:pageshadow="2"
     inkscape:window-width="1366"
     inkscape:window-height="696"
     id="namedview138"
     showgrid="false"
     inkscape:zoom="0.98333333"
     inkscape:cx="103.9839"
     inkscape:cy="216.71216"
     inkscape:window-x="0"
     inkscape:window-y="24"
     inkscape:window-maximized="1"
     inkscape:current-layer="svg2" />
  <desc
     id="desc4">Produced by GNUPLOT 4.2 patchlevel 6  </desc>
  <defs
     id="defs6">
    <inkscape:perspective
       sodipodi:type="inkscape:persp3d"
       inkscape:vp_x="0 : 240 : 1"
       inkscape:vp_y="0 : 1000 : 0"
       inkscape:vp_z="600 : 240 : 1"
       inkscape:persp3d-origin="300 : 160 : 1"
       id="perspective142" />
    <circle
       id="gpDot"
       r="0.5"
       cx="0"
       cy="0"
       sodipodi:cx="0"
       sodipodi:cy="0"
       sodipodi:rx="0.5"
       sodipodi:ry="0.5"
       style="stroke-width:0.5" />
    <path
       id="gpPt0"
       d="M -1,0 H 1 M 0,-1 v 2"
       style="stroke:currentColor;stroke-width:0.222" />
    <path
       id="gpPt1"
       d="M -1,-1 1,1 M 1,-1 -1,1"
       style="stroke:currentColor;stroke-width:0.222" />
    <path
       id="gpPt2"
       d="M -1,0 1,0 M 0,-1 0,1 m -1,-2 2,2 m -2,0 2,-2"
       style="stroke:currentColor;stroke-width:0.222" />
    <rect
       id="gpPt3"
       x="-1"
       y="-1"
       width="2"
       height="2"
       style="stroke:currentColor;stroke-width:0.222" />
    <rect
       id="gpPt4"
       x="-1"
       y="-1"
       width="2"
       height="2"
       style="fill:currentColor;stroke:currentColor;stroke-width:0.222" />
    <circle
       id="gpPt5"
       cx="0"
       cy="0"
       r="1"
       sodipodi:cx="0"
       sodipodi:cy="0"
       sodipodi:rx="1"
       sodipodi:ry="1"
       style="stroke:currentColor;stroke-width:0.222" />
    <use
       xlink:href="#gpPt5"
       id="gpPt6"
       style="fill:currentColor;stroke:none"
       x="0"
       y="0"
       width="600"
       height="480" />
    <path
       id="gpPt7"
       d="m 0,-1.33 -1.33,2 2.66,0 z"
       style="stroke:currentColor;stroke-width:0.222" />
    <use
       xlink:href="#gpPt7"
       id="gpPt8"
       style="fill:currentColor;stroke:none"
       x="0"
       y="0"
       width="600"
       height="480" />
    <use
       xlink:href="#gpPt7"
       id="gpPt9"
       transform="scale(-1,-1)"
       style="stroke:currentColor"
       x="0"
       y="0"
       width="600"
       height="480" />
    <use
       xlink:href="#gpPt9"
       id="gpPt10"
       style="fill:currentColor;stroke:none"
       x="0"
       y="0"
       width="600"
       height="480" />
    <use
       xlink:href="#gpPt3"
       id="gpPt11"
       transform="matrix(0.70710678,0.70710678,-0.70710678,0.70710678,0,0)"
       style="stroke:currentColor"
       x="0"
       y="0"
       width="600"
       height="480" />
    <use
       xlink:href="#gpPt11"
       id="gpPt12"
       style="fill:currentColor;stroke:none"
       x="0"
       y="0"
       width="600"
       height="480" />
    <inkscape:perspective
       id="perspective3732"
       inkscape:persp3d-origin="0.5 : 0.33333333 : 1"
       inkscape:vp_z="1 : 0.5 : 1"
       inkscape:vp_y="0 : 1000 : 0"
       inkscape:vp_x="0 : 0.5 : 1"
       sodipodi:type="inkscape:persp3d" />
    <inkscape:perspective
       id="perspective2902"
       inkscape:persp3d-origin="0.5 : 0.33333333 : 1"
       inkscape:vp_z="1 : 0.5 : 1"
       inkscape:vp_y="0 : 1000 : 0"
       inkscape:vp_x="0 : 0.5 : 1"
       sodipodi:type="inkscape:persp3d" />
    <inkscape:perspective
       id="perspective2927"
       inkscape:persp3d-origin="0.5 : 0.33333333 : 1"
       inkscape:vp_z="1 : 0.5 : 1"
       inkscape:vp_y="0 : 1000 : 0"
       inkscape:vp_x="0 : 0.5 : 1"
       sodipodi:type="inkscape:persp3d" />
    <inkscape:perspective
       id="perspective2956"
       inkscape:persp3d-origin="0.5 : 0.33333333 : 1"
       inkscape:vp_z="1 : 0.5 : 1"
       inkscape:vp_y="0 : 1000 : 0"
       inkscape:vp_x="0 : 0.5 : 1"
       sodipodi:type="inkscape:persp3d" />
    <inkscape:perspective
       id="perspective2981"
       inkscape:persp3d-origin="0.5 : 0.33333333 : 1"
       inkscape:vp_z="1 : 0.5 : 1"
       inkscape:vp_y="0 : 1000 : 0"
       inkscape:vp_x="0 : 0.5 : 1"
       sodipodi:type="inkscape:persp3d" />
    <inkscape:perspective
       id="perspective3010"
       inkscape:persp3d-origin="0.5 : 0.33333333 : 1"
       inkscape:vp_z="1 : 0.5 : 1"
       inkscape:vp_y="0 : 1000 : 0"
       inkscape:vp_x="0 : 0.5 : 1"
       sodipodi:type="inkscape:persp3d" />
    <inkscape:perspective
       id="perspective3035"
       inkscape:persp3d-origin="0.5 : 0.33333333 : 1"
       inkscape:vp_z="1 : 0.5 : 1"
       inkscape:vp_y="0 : 1000 : 0"
       inkscape:vp_x="0 : 0.5 : 1"
       sodipodi:type="inkscape:persp3d" />
  </defs>
  <g
     style="color:#ffffff;fill:none;stroke:currentColor;stroke-width:1;stroke-linecap:butt;stroke-linejoin:miter"
     id="g22"
     transform="translate(-23.462695,-6.0355379)" />
  <g
     style="color:#000000;fill:none;stroke:currentColor;stroke-width:1;stroke-linecap:butt;stroke-linejoin:miter"
     id="g24"
     transform="translate(-23.462695,-6.0355379)">
    <path
       d="m 80.2,422.4 -0.9,0 m 0.9,0 0.9,0"
       id="path26" />
    <g
       transform="translate(71.9,426.9)"
       style="font-size:15px;text-anchor:end;fill:#000000;stroke:none;font-family:Arial"
       id="g28">
      <text
         id="text30">0</text>
    </g>
    <path
       d="m 80.2,341.2 -0.9,0 m 0.9,0 0.9,0"
       id="path32" />
    <g
       transform="translate(71.9,345.7)"
       style="font-size:15px;text-anchor:end;fill:#000000;stroke:none;font-family:Arial"
       id="g34">
      <text
         id="text36">5</text>
    </g>
    <path
       d="m 80.2,260.1 -0.9,0 m 0.9,0 0.9,0"
       id="path38" />
    <g
       transform="translate(71.9,264.6)"
       style="font-size:15px;text-anchor:end;fill:#000000;stroke:none;font-family:Arial"
       id="g40">
      <text
         id="text42">10</text>
    </g>
    <path
       d="m 80.2,178.9 -0.9,0 m 0.9,0 0.9,0"
       id="path44" />
    <g
       transform="translate(71.9,183.4)"
       style="font-size:15px;text-anchor:end;fill:#000000;stroke:none;font-family:Arial"
       id="g46">
      <text
         id="text48">15</text>
    </g>
    <path
       d="m 80.2,97.8 -0.9,0 m 0.9,0 0.9,0"
       id="path50" />
    <g
       transform="translate(71.9,102.3)"
       style="font-size:15px;text-anchor:end;fill:#000000;stroke:none;font-family:Arial"
       id="g52">
      <text
         id="text54">20</text>
    </g>
    <path
       d="m 80.2,16.6 -0.9,0 m 0.9,0 0.9,0"
       id="path56" />
    <g
       transform="translate(71.9,21.1)"
       style="font-size:15px;text-anchor:end;fill:#000000;stroke:none;font-family:Arial"
       id="g58">
      <text
         id="text60">25</text>
    </g>
    <path
       d="m 80.2,422.4 0,0.9 m 0,-0.9 0,-0.9"
       id="path62" />
    <g
       transform="translate(80.2,445.8)"
       style="font-size:15px;text-anchor:middle;fill:#000000;stroke:none;font-family:Arial"
       id="g64">
      <text
         id="text66">0</text>
    </g>
    <path
       d="m 180,422.4 0,0.9 m 0,-0.9 0,-0.9"
       id="path68" />
    <g
       transform="translate(180,445.8)"
       style="font-size:15px;text-anchor:middle;fill:#000000;stroke:none;font-family:Arial"
       id="g70">
      <text
         id="text72">5</text>
    </g>
    <path
       d="m 279.8,422.4 0,0.9 m 0,-0.9 0,-0.9"
       id="path74" />
    <g
       transform="translate(279.8,445.8)"
       style="font-size:15px;text-anchor:middle;fill:#000000;stroke:none;font-family:Arial"
       id="g76">
      <text
         id="text78">10</text>
    </g>
    <path
       d="m 379.6,422.4 0,0.9 m 0,-0.9 0,-0.9"
       id="path80" />
    <g
       transform="translate(379.6,445.8)"
       style="font-size:15px;text-anchor:middle;fill:#000000;stroke:none;font-family:Arial"
       id="g82">
      <text
         id="text84">15</text>
    </g>
    <path
       d="m 479.4,422.4 0,0.9 m 0,-0.9 0,-0.9"
       id="path86" />
    <g
       transform="translate(479.4,445.8)"
       style="font-size:15px;text-anchor:middle;fill:#000000;stroke:none;font-family:Arial"
       id="g88">
      <text
         id="text90">20</text>
    </g>
    <path
       d="m 579.2,422.4 0,0.9 m 0,-0.9 0,-0.9"
       id="path92" />
    <g
       transform="translate(579.2,445.8)"
       style="font-size:15px;text-anchor:middle;fill:#000000;stroke:none;font-family:Arial"
       id="g94">
      <text
         id="text96">25</text>
    </g>
  </g>
  <g
     style="color:#808080;fill:none;stroke:currentColor;stroke-width:1;stroke-linecap:butt;stroke-linejoin:miter"
     id="g98"
     transform="translate(-23.462695,-6.0355379)">
    <path
       d="m 80.2,422.4 499,0 m -499,0 0,-405.8"
       id="path100" />
    <g
       transform="matrix(0,-1,1,0,34.2,219.5)"
       style="font-size:15px;text-anchor:middle;fill:#000000;stroke:none;font-family:Arial"
       id="g102">
      <text
         id="text104">eixo L</text>
    </g>
  </g>
  <g
     style="color:#000000;fill:none;stroke:currentColor;stroke-width:1;stroke-linecap:butt;stroke-linejoin:miter"
     id="g106"
     transform="translate(-23.462695,-6.0355379)">
    <g
       transform="translate(329.7,471.9)"
       style="font-size:15px;text-anchor:middle;fill:#000000;stroke:none;font-family:Arial"
       id="g108">
      <text
         id="text110">eixo u</text>
    </g>
  </g>
  <g
     style="color:#008000;fill:none;stroke:currentColor;stroke-width:1;stroke-linecap:butt;stroke-linejoin:miter"
     id="g112"
     transform="translate(-23.462695,-6.0355379)">
    <path
       d="m 80.2,211.4 5,-4.9 5.1,-5 5,-4.9 5.1,-4.9 5,-4.9 5,-4.9 5.1,-4.9 5,-5 5.1,-4.9 5,-4.9 5,-4.9 5.1,-4.9 5,-5 5.1,-4.9 5,-4.9 5,-4.9 5.1,-4.9 5,-5 5.1,-4.9 5,-4.9 5,-4.9 5.1,-4.9 5,-4.9 5.1,-5 5,-4.9 5.1,-4.9 5,-4.9 5,-4.9 5.1,-5 5,-4.9 5.1,-4.9 5,-4.9 5,-4.9 5.1,-5 5,-4.9 5.1,-4.9 5,-4.9 5,-4.9 5.1,-4.9 3,-3 m -199.6,275.9 5,-5.3 5.1,-5.3 5,-5.3 5.1,-5.4 5,-5.3 5,-5.3 5.1,-5.4 5,-5.3 5.1,-5.3 5,-5.3 5,-5.4 5.1,-5.3 5,-5.3 5.1,-5.4 5,-5.3 5,-5.3 5.1,-5.3 5,-5.4 5.1,-5.3 5,-5.3 5,-5.4 5.1,-5.3 5,-5.3 5.1,-5.3 5,-5.4 5.1,-5.3 5,-5.3 5,-5.4 5.1,-5.3 5,-5.3 5.1,-5.3 5,-5.4 5,-5.3 5.1,-5.3 5,-5.4 5.1,-5.3 5,-5.3 5,-5.3 5.1,-5.4 5,-5.3 5.1,-5.3 5,-5.4 5,-5.3 5.1,-5.3 5,-5.3 5.1,-5.4 5,-5.3 5,-5.3 5.1,-5.4 5,-5.3 5.1,-5.3 3.9,-4.2 m -261,146.1 5,-1.7 5.1,-1.6 5,-1.6 5.1,-1.7 5,-1.6 5,-1.6 5.1,-1.7 5,-1.6 5.1,-1.7 5,-1.6 5,-1.6 5.1,-1.7 5,-1.6 5.1,-1.7 5,-1.6 5,-1.6 5.1,-1.7 5,-1.6 5.1,-1.7 5,-1.6 5,-1.6 5.1,-1.7 5,-1.6 5.1,-1.7 5,-1.6 5.1,-1.6 5,-1.7 5,-1.6 5.1,-1.7 5,-1.6 5.1,-1.6 5,-1.7 5,-1.6 5.1,-1.7 5,-1.6 5.1,-1.6 5,-1.7 5,-1.6 5.1,-1.7 5,-1.6 5.1,-1.6 5,-1.7 5,-1.6 5.1,-1.7 5,-1.6 5.1,-1.6 5,-1.7 5,-1.6 5.1,-1.7 5,-1.6 5.1,-1.6 5,-1.7 5,-1.6 5.1,-1.7 5,-1.6 5.1,-1.6 5,-1.7 5,-1.6 5.1,-1.6 5,-1.7 5.1,-1.6 5,-1.7 5,-1.6 5.1,-1.6 5,-1.7 5.1,-1.6 5,-1.7 5,-1.6 5.1,-1.6 5,-1.7 5.1,-1.6 5,-1.7 5,-1.6 5.1,-1.6 5,-1.7 5.1,-1.6 5,-1.7 5.1,-1.6 5,-1.6 5,-1.7 5.1,-1.6 5,-1.7 5.1,-1.6 5,-1.6 5,-1.7 5.1,-1.6 5,-1.7 5.1,-1.6 5,-1.6 0.5,-0.2"
       id="path114"
       style="stroke:#999999" />
    <path
       d="m 80.2,341.2 5,-4.1 5.1,-4.1 5,-4.1 5.1,-4.1 5,-4.1 5,-4.1 5.1,-4.1 5,-4.1 5.1,-4.1 5,-4 5,-4.1 5.1,-4.1 5,-4.1 5.1,-4.1 5,-4.1 5,-4.1 5.1,-4.1 5,-4.1 5.1,-4.1 5,-4.1 5,-4.1 5.1,-4.1 5,-4.1 5.1,-4.1 5,-4.1 5.1,-4.1 5,-4.1 5,-4.1 5.1,-4.1 5,-4.1 5.1,-4.1 5,-4.1 5,-4.1 5.1,-4.1 5,-4.1 5.1,-4.1 5,-4.1 5,-4.1 5.1,-4.1 5,-4.1 5.1,-4.1 5,-4.1 5,-4.1 5.1,-4.1 5,-4.1 5.1,-4.1 5,-4.1 5,-4.1 5.1,-4.1 5,-4.1 5.1,-4.1 5,-4.1 5,-4.1 5.1,-4.1 5,-4.1 5.1,-4.1 5,-4.1 5,-4.1 5.1,-4.1 5,-4.1 5.1,-4.1 5,-4.1 5,-4.1 5.1,-4.1 5,-4.1 5.1,-4.1 5,-4.1 5,-4.1 5.1,-4.1 5,-4.1 5.1,-4.1 5,-4.1 5,-4.1 5.1,-4.1 5,-4.1 5.1,-4.1 5,-4.1 5.1,-4.1 5,-4.1 1,-0.8"
       id="path116"
       style="stroke:#000000" />
    <path
       d="m 80.2,243.8 5,-2 5.1,-2.1 5,-2 5.1,-2 5,-2.1 5,-2 5.1,-2.1 5,-2 5.1,-2.1 5,-2 5,-2.1 5.1,-2 5,-2.1 5.1,-2 5,-2.1 5,-2 5.1,-2.1 5,-2 5.1,-2.1 5,-2 5,-2.1 5.1,-2 5,-2.1 5.1,-2 5,-2.1 5.1,-2 5,-2.1 5,-2 5.1,-2.1 5,-2 5.1,-2.1 5,-2 5,-2.1 5.1,-2 5,-2.1 5.1,-2 5,-2.1 5,-2 5.1,-2.1 5,-2 5.1,-2.1 5,-2 5,-2.1 5.1,-2 5,-2.1 5.1,-2 5,-2.1 5,-2 5.1,-2.1 5,-2 5.1,-2.1 5,-2 5,-2.1 5.1,-2 5,-2.1 5.1,-2 5,-2.1 5,-2 5.1,-2.1 5,-2 5.1,-2.1 5,-2 5,-2.1 5.1,-2 5,-2.1 5.1,-2 5,-2.1 5,-2 5.1,-2.1 5,-2 5.1,-2.1 5,-2 5,-2.1 5.1,-2 5,-2.1 5.1,-2 5,-2.1 5.1,-2 5,-2.1 5,-2 5.1,-2.1 5,-2 5.1,-2.1 5,-2 5,-2.1 5.1,-2 5,-2.1 5.1,-2 5,-2.1 5,-2 5.1,-2.1 5,-2 5.1,-2.1 5,-2 5,-2.1 5.1,-2 5,-2.1 5.1,-2 5,-2.1"
       id="path118"
       style="stroke:#999999" />
    <path
       d="m 80.2,325 5,-2.5 5.1,-2.4 5,-2.5 5.1,-2.4 5,-2.5 5,-2.4 5.1,-2.5 5,-2.5 5.1,-2.4 5,-2.5 5,-2.4 5.1,-2.5 5,-2.5 5.1,-2.4 5,-2.5 5,-2.4 5.1,-2.5 5,-2.5 5.1,-2.4 5,-2.5 5,-2.4 5.1,-2.5 5,-2.5 5.1,-2.4 5,-2.5 5.1,-2.4 5,-2.5 5,-2.5 5.1,-2.4 5,-2.5 5.1,-2.4 5,-2.5 5,-2.5 5.1,-2.4 5,-2.5 5.1,-2.4 5,-2.5 5,-2.4 5.1,-2.5 5,-2.5 5.1,-2.4 5,-2.5 5,-2.4 5.1,-2.5 5,-2.5 5.1,-2.4 5,-2.5 5,-2.4 5.1,-2.5 5,-2.5 5.1,-2.4 5,-2.5 5,-2.4 5.1,-2.5 5,-2.5 5.1,-2.4 5,-2.5 5,-2.4 5.1,-2.5 5,-2.5 5.1,-2.4 5,-2.5 5,-2.4 5.1,-2.5 5,-2.5 5.1,-2.4 5,-2.5 5,-2.4 5.1,-2.5 5,-2.4 5.1,-2.5 5,-2.5 5,-2.4 5.1,-2.5 5,-2.4 5.1,-2.5 5,-2.5 5.1,-2.4 5,-2.5 5,-2.4 5.1,-2.5 5,-2.5 5.1,-2.4 5,-2.5 5,-2.4 5.1,-2.5 5,-2.5 5.1,-2.4 5,-2.5 5,-2.4 5.1,-2.5 5,-2.5 5.1,-2.4 5,-2.5 5,-2.4 5.1,-2.5 5,-2.5 5.1,-2.4 5,-2.5"
       id="path120"
       style="stroke:#000000" />
    <path
       d="m 80.2,146.5 5,0.7 5.1,0.8 5,0.8 5.1,0.8 5,0.8 5,0.7 5.1,0.8 5,0.8 5.1,0.8 5,0.7 5,0.8 5.1,0.8 5,0.8 5.1,0.8 5,0.7 5,0.8 5.1,0.8 5,0.8 5.1,0.8 5,0.7 5,0.8 5.1,0.8 5,0.8 5.1,0.7 5,0.8 5.1,0.8 5,0.8 5,0.8 5.1,0.7 5,0.8 5.1,0.8 5,0.8 5,0.8 5.1,0.7 5,0.8 5.1,0.8 5,0.8 5,0.8 5.1,0.7 5,0.8 5.1,0.8 5,0.8 5,0.7 5.1,0.8 5,0.8 5.1,0.8 5,0.8 5,0.7 5.1,0.8 5,0.8 5.1,0.8 5,0.8 5,0.7 5.1,0.8 5,0.8 5.1,0.8 5,0.7 5,0.8 5.1,0.8 5,0.8 5.1,0.8 5,0.7 5,0.8 5.1,0.8 5,0.8 5.1,0.8 5,0.7 5,0.8 5.1,0.8 5,0.8 5.1,0.8 5,0.7 5,0.8 5.1,0.8 5,0.8 5.1,0.7 5,0.8 5.1,0.8 5,0.8 5,0.8 5.1,0.7 5,0.8 5.1,0.8 5,0.8 5,0.8 5.1,0.7 5,0.8 5.1,0.8 5,0.8 5,0.7 5.1,0.8 5,0.8 5.1,0.8 5,0.8 5,0.7 5.1,0.8 5,0.8 5.1,0.8 5,0.8 m -499,-77.1 5,-1.7 5.1,-1.6 5,-1.7 5.1,-1.6 5,-1.6 5,-1.7 5.1,-1.6 5,-1.7 5.1,-1.6 5,-1.6 5,-1.7 5.1,-1.6 5,-1.7 5.1,-1.6 5,-1.6 5,-1.7 5.1,-1.6 5,-1.7 5.1,-1.6 5,-1.6 5,-1.7 5.1,-1.6 5,-1.7 5.1,-1.6 5,-1.6 5.1,-1.7 5,-1.6 5,-1.7 5.1,-1.6 5,-1.6 5.1,-1.7 5,-1.6 5,-1.7 5.1,-1.6 5,-1.6 5.1,-1.7 5,-1.6 5,-1.6 5.1,-1.7 5,-1.6 5.1,-1.7 5,-1.6 5,-1.6 5.1,-1.7 5,-1.6 5.1,-1.7 5,-1.6 5,-1.6 5.1,-1.7 5,-1.6 5.1,-1.7 5,-1.6 5,-1.6 5.1,-1.7 5,-1.6 5.1,-1.7 5,-1.6 5,-1.6 5.1,-1.7 5,-1.6 5.1,-1.7 5,-1.6 5,-1.6 5.1,-1.7 5,-1.6 5.1,-1.7 5,-1.6 5,-1.6 5.1,-1.7 5,-1.6 5.1,-1.7 5,-1.6 5,-1.6 5.1,-1.7 5,-1.6 5.1,-1.7 5,-1.6 5.1,-1.6 5,-1.7 1,-0.3 m -399.2,211 5,-2 5.1,-2.1 5,-2 5.1,-2.1 5,-2 5,-2.1 5.1,-2 5,-2.1 5.1,-2 5,-2.1 5,-2 5.1,-2.1 5,-2 5.1,-2.1 5,-2 5,-2.1 5.1,-2 5,-2.1 5.1,-2 5,-2.1 5,-2 5.1,-2.1 5,-2 5.1,-2.1 5,-2 5.1,-2.1 5,-2 5,-2.1 5.1,-2 5,-2.1 5.1,-2 5,-2.1 5,-2 5.1,-2.1 5,-2 5.1,-2.1 5,-2 5,-2.1 5.1,-2 5,-2.1 5.1,-2 5,-2.1 5,-2 5.1,-2.1 5,-2 5.1,-2.1 5,-2 5,-2.1 5.1,-2 5,-2.1 5.1,-2 5,-2.1 5,-2 5.1,-2.1 5,-2 5.1,-2.1 5,-2 5,-2.1 5.1,-2 5,-2.1 5.1,-2 5,-2.1 5,-2 5.1,-2.1 5,-2 5.1,-2.1 5,-2 5,-2 5.1,-2.1 5,-2 5.1,-2.1 5,-2 5,-2.1 5.1,-2 5,-2.1 5.1,-2 5,-2.1 5.1,-2 5,-2.1 5,-2 5.1,-2.1 5,-2 5.1,-2.1 5,-2 5,-2.1 5.1,-2 5,-2.1 5.1,-2 5,-2.1 5,-2 5.1,-2.1 5,-2 5.1,-2.1 5,-2 5,-2.1 5.1,-2 5,-2.1 5.1,-2 5,-2.1 m -499,73.1 5,1.6 5.1,1.6 5,1.7 5.1,1.6 5,1.7 5,1.6 5.1,1.6 5,1.7 5.1,1.6 5,1.7 5,1.6 5.1,1.6 5,1.7 5.1,1.6 5,1.7 5,1.6 5.1,1.6 5,1.7 5.1,1.6 5,1.7 5,1.6 5.1,1.6 5,1.7 5.1,1.6 5,1.6 5.1,1.7 5,1.6 5,1.7 5.1,1.6 5,1.6 5.1,1.7 5,1.6 5,1.7 5.1,1.6 5,1.6 5.1,1.7 5,1.6 5,1.7 5.1,1.6 5,1.6 5.1,1.7 5,1.6 5,1.7 5.1,1.6 5,1.6 5.1,1.7 5,1.6 5,1.7 5.1,1.6 5,1.6 5.1,1.7 5,1.6 5,1.7 5.1,1.6 5,1.6 5.1,1.7 5,1.6 5,1.7 5.1,1.6 5,1.6 5.1,1.7 5,1.6 5,1.7 5.1,1.6 5,1.6 5.1,1.7 5,1.6 5,1.7 5.1,1.6 5,1.6 5.1,1.7 5,1.6 5,1.7 5.1,1.6 5,1.6 5.1,1.7 5,1.6 5.1,1.6 5,1.7 5,1.6 5.1,1.7 5,1.6 5.1,1.6 5,1.7 5,1.6 5.1,1.7 5,1.6 5.1,1.6 5,1.7 5,1.6 5.1,1.7 5,1.6 5.1,1.6 5,1.7 5,1.6 5.1,1.7 5,1.6 5.1,1.6 5,1.7"
       id="path122"
       style="stroke:#999999" />
    <path
       d="m 80.2,276.3 5,-0.8 5.1,-0.8 5,-0.8 5.1,-0.9 5,-0.8 5,-0.8 5.1,-0.8 5,-0.8 5.1,-0.9 5,-0.8 5,-0.8 5.1,-0.8 5,-0.8 5.1,-0.9 5,-0.8 5,-0.8 5.1,-0.8 5,-0.8 5.1,-0.9 5,-0.8 5,-0.8 5.1,-0.8 5,-0.8 5.1,-0.9 5,-0.8 5.1,-0.8 5,-0.8 5,-0.8 5.1,-0.9 5,-0.8 5.1,-0.8 5,-0.8 5,-0.8 5.1,-0.9 5,-0.8 5.1,-0.8 5,-0.8 5,-0.8 5.1,-0.9 5,-0.8 5.1,-0.8 5,-0.8 5,-0.8 5.1,-0.9 5,-0.8 5.1,-0.8 5,-0.8 5,-0.8 5.1,-0.9 5,-0.8 5.1,-0.8 5,-0.8 5,-0.8 5.1,-0.9 5,-0.8 5.1,-0.8 5,-0.8 5,-0.8 5.1,-0.9 5,-0.8 5.1,-0.8 5,-0.8 5,-0.8 5.1,-0.9 5,-0.8 5.1,-0.8 5,-0.8 5,-0.8 5.1,-0.9 5,-0.8 5.1,-0.8 5,-0.8 5,-0.8 5.1,-0.9 5,-0.8 5.1,-0.8 5,-0.8 5.1,-0.8 5,-0.9 5,-0.8 5.1,-0.8 5,-0.8 5.1,-0.8 5,-0.9 5,-0.8 5.1,-0.8 5,-0.8 5.1,-0.8 5,-0.9 5,-0.8 5.1,-0.8 5,-0.8 5.1,-0.8 5,-0.8 5,-0.9 5.1,-0.8 5,-0.8 5.1,-0.8 5,-0.8"
       id="path124"
       style="stroke:#000000" />
    <path
       d="m 80.2,114 5,0.8 5.1,0.8 5,0.9 5.1,0.8 5,0.8 5,0.8 5.1,0.8 5,0.9 5.1,0.8 5,0.8 5,0.8 5.1,0.8 5,0.8 5.1,0.9 5,0.8 5,0.8 5.1,0.8 5,0.8 5.1,0.9 5,0.8 5,0.8 5.1,0.8 5,0.8 5.1,0.9 5,0.8 5.1,0.8 5,0.8 5,0.8 5.1,0.9 5,0.8 5.1,0.8 5,0.8 5,0.8 5.1,0.9 5,0.8 5.1,0.8 5,0.8 5,0.8 5.1,0.9 5,0.8 5.1,0.8 5,0.8 5,0.8 5.1,0.9 5,0.8 5.1,0.8 5,0.8 5,0.8 5.1,0.9 5,0.8 5.1,0.8 5,0.8 5,0.8 5.1,0.9 5,0.8 5.1,0.8 5,0.8 5,0.8 5.1,0.9 5,0.8 5.1,0.8 5,0.8 5,0.8 5.1,0.9 5,0.8 5.1,0.8 5,0.8 5,0.8 5.1,0.9 5,0.8 5.1,0.8 5,0.8 5,0.8 5.1,0.9 5,0.8 5.1,0.8 5,0.8 5.1,0.8 5,0.9 5,0.8 5.1,0.8 5,0.8 5.1,0.8 5,0.9 5,0.8 5.1,0.8 5,0.8 5.1,0.8 5,0.9 5,0.8 5.1,0.8 5,0.8 5.1,0.8 5,0.9 5,0.8 5.1,0.8 5,0.8 5.1,0.8 5,0.9"
       id="path126"
       style="stroke:#999999" />
    <path
       d="m 80.2,195.2 5,0.4 5.1,0.4 5,0.4 5.1,0.4 5,0.4 5,0.4 5.1,0.4 5,0.4 5.1,0.4 5,0.5 5,0.4 5.1,0.4 5,0.4 5.1,0.4 5,0.4 5,0.4 5.1,0.4 5,0.4 5.1,0.4 5,0.4 5,0.5 5.1,0.4 5,0.4 5.1,0.4 5,0.4 5.1,0.4 5,0.4 5,0.4 5.1,0.4 5,0.4 5.1,0.5 5,0.4 5,0.4 5.1,0.4 5,0.4 5.1,0.4 5,0.4 5,0.4 5.1,0.4 5,0.4 5.1,0.5 5,0.4 5,0.4 5.1,0.4 5,0.4 5.1,0.4 5,0.4 5,0.4 5.1,0.4 5,0.4 5.1,0.5 5,0.4 5,0.4 5.1,0.4 5,0.4 5.1,0.4 5,0.4 5,0.4 5.1,0.4 5,0.4 5.1,0.5 5,0.4 5,0.4 5.1,0.4 5,0.4 5.1,0.4 5,0.4 5,0.4 5.1,0.4 5,0.4 5.1,0.5 5,0.4 5,0.4 5.1,0.4 5,0.4 5.1,0.4 5,0.4 5.1,0.4 5,0.4 5,0.4 5.1,0.5 5,0.4 5.1,0.4 5,0.4 5,0.4 5.1,0.4 5,0.4 5.1,0.4 5,0.4 5,0.4 5.1,0.5 5,0.4 5.1,0.4 5,0.4 5,0.4 5.1,0.4 5,0.4 5.1,0.4 5,0.4 m -499,-56.8 5,1.7 5.1,1.6 5,1.6 5.1,1.7 5,1.6 5,1.7 5.1,1.6 5,1.6 5.1,1.7 5,1.6 5,1.7 5.1,1.6 5,1.6 5.1,1.7 5,1.6 5,1.7 5.1,1.6 5,1.6 5.1,1.7 5,1.6 5,1.7 5.1,1.6 5,1.6 5.1,1.7 5,1.6 5.1,1.6 5,1.7 5,1.6 5.1,1.7 5,1.6 5.1,1.6 5,1.7 5,1.6 5.1,1.7 5,1.6 5.1,1.6 5,1.7 5,1.6 5.1,1.7 5,1.6 5.1,1.6 5,1.7 5,1.6 5.1,1.7 5,1.6 5.1,1.6 5,1.7 5,1.6 5.1,1.7 5,1.6 5.1,1.6 5,1.7 5,1.6 5.1,1.7 5,1.6 5.1,1.6 5,1.7 5,1.6 5.1,1.7 5,1.6 5.1,1.6 5,1.7 5,1.6 5.1,1.7 5,1.6 5.1,1.6 5,1.7 5,1.6 5.1,1.7 5,1.6 5.1,1.6 5,1.7 5,1.6 5.1,1.7 5,1.6 5.1,1.6 5,1.7 5.1,1.6 5,1.6 5,1.7 5.1,1.6 5,1.7 5.1,1.6 5,1.6 5,1.7 5.1,1.6 5,1.7 5.1,1.6 5,1.6 5,1.7 5.1,1.6 5,1.7 5.1,1.6 5,1.6 5,1.7 5.1,1.6 5,1.7 5.1,1.6 5,1.6"
       id="path128"
       style="stroke:#000000" />
    <path
       d="m 80.2,130.2 5,-0.8 5.1,-0.8 5,-0.8 5.1,-0.9 5,-0.8 5,-0.8 5.1,-0.8 5,-0.8 5.1,-0.9 5,-0.8 5,-0.8 5.1,-0.8 5,-0.8 5.1,-0.9 5,-0.8 5,-0.8 5.1,-0.8 5,-0.8 5.1,-0.9 5,-0.8 5,-0.8 5.1,-0.8 5,-0.8 5.1,-0.9 5,-0.8 5.1,-0.8 5,-0.8 5,-0.8 5.1,-0.9 5,-0.8 5.1,-0.8 5,-0.8 5,-0.8 5.1,-0.8 5,-0.9 5.1,-0.8 5,-0.8 5,-0.8 5.1,-0.8 5,-0.9 5.1,-0.8 5,-0.8 5,-0.8 5.1,-0.8 5,-0.9 5.1,-0.8 5,-0.8 5,-0.8 5.1,-0.8 5,-0.9 5.1,-0.8 5,-0.8 5,-0.8 5.1,-0.8 5,-0.9 5.1,-0.8 5,-0.8 5,-0.8 5.1,-0.8 5,-0.9 5.1,-0.8 5,-0.8 5,-0.8 5.1,-0.8 5,-0.9 5.1,-0.8 5,-0.8 5,-0.8 5.1,-0.8 5,-0.9 5.1,-0.8 5,-0.8 5,-0.8 5.1,-0.8 5,-0.9 5.1,-0.8 5,-0.8 5.1,-0.8 5,-0.8 5,-0.9 5.1,-0.8 5,-0.8 5.1,-0.8 5,-0.8 5,-0.9 5.1,-0.8 5,-0.8 5.1,-0.8 5,-0.8 5,-0.9 5.1,-0.8 5,-0.8 5.1,-0.8 5,-0.8 5,-0.9 5.1,-0.8 5,-0.8 5.1,-0.8 5,-0.8 m -499,162.3 5,-1.2 5.1,-1.3 5,-1.2 5.1,-1.2 5,-1.3 5,-1.2 5.1,-1.2 5,-1.3 5.1,-1.2 5,-1.2 5,-1.2 5.1,-1.3 5,-1.2 5.1,-1.2 5,-1.3 5,-1.2 5.1,-1.2 5,-1.3 5.1,-1.2 5,-1.2 5,-1.2 5.1,-1.3 5,-1.2 5.1,-1.2 5,-1.3 5.1,-1.2 5,-1.2 5,-1.2 5.1,-1.3 5,-1.2 5.1,-1.2 5,-1.3 5,-1.2 5.1,-1.2 5,-1.3 5.1,-1.2 5,-1.2 5,-1.2 5.1,-1.3 5,-1.2 5.1,-1.2 5,-1.3 5,-1.2 5.1,-1.2 5,-1.3 5.1,-1.2 5,-1.2 5,-1.2 5.1,-1.3 5,-1.2 5.1,-1.2 5,-1.3 5,-1.2 5.1,-1.2 5,-1.2 5.1,-1.3 5,-1.2 5,-1.2 5.1,-1.3 5,-1.2 5.1,-1.2 5,-1.3 5,-1.2 5.1,-1.2 5,-1.2 5.1,-1.3 5,-1.2 5,-1.2 5.1,-1.3 5,-1.2 5.1,-1.2 5,-1.3 5,-1.2 5.1,-1.2 5,-1.2 5.1,-1.3 5,-1.2 5.1,-1.2 5,-1.3 5,-1.2 5.1,-1.2 5,-1.3 5.1,-1.2 5,-1.2 5,-1.2 5.1,-1.3 5,-1.2 5.1,-1.2 5,-1.3 5,-1.2 5.1,-1.2 5,-1.2 5.1,-1.3 5,-1.2 5,-1.2 5.1,-1.3 5,-1.2 5.1,-1.2 5,-1.3"
       id="path130"
       style="stroke:#999999" />
    <path
       d="m 80.2,97.8 5,2.6 5.1,2.7 5,2.7 5.1,2.6 5,2.7 5,2.6 5.1,2.7 5,2.7 5.1,2.6 5,2.7 5,2.7 5.1,2.6 5,2.7 5.1,2.7 5,2.6 5,2.7 5.1,2.7 5,2.6 5.1,2.7 5,2.6 5,2.7 5.1,2.7 5,2.6 5.1,2.7 5,2.7 5.1,2.6 5,2.7 5,2.7 5.1,2.6 5,2.7 5.1,2.7 5,2.6 5,2.7 5.1,2.6 5,2.7 5.1,2.7 5,2.6 5,2.7 5.1,2.7 5,2.6 5.1,2.7 5,2.7 5,2.6 5.1,2.7 5,2.7 5.1,2.6 5,2.7 5,2.6 5.1,2.7 5,2.7 5.1,2.6 5,2.7 5,2.7 5.1,2.6 5,2.7 5.1,2.7 5,2.6 5,2.7 5.1,2.7 5,2.6 5.1,2.7 5,2.6 5,2.7 5.1,2.7 5,2.6 5.1,2.7 5,2.7 5,2.6 5.1,2.7 5,2.7 5.1,2.6 5,2.7 5,2.7 5.1,2.6 5,2.7 5.1,2.7 5,2.6 5.1,2.7 5,2.6 5,2.7 5.1,2.7 5,2.6 5.1,2.7 5,2.7 5,2.6 5.1,2.7 5,2.7 5.1,2.6 5,2.7 5,2.7 5.1,2.6 5,2.7 5.1,2.6 5,2.7 5,2.7 5.1,2.6 5,2.7 5.1,2.7 5,2.6"
       id="path132"
       style="stroke:#000000" />
    <path
       d="m 80.2,162.7 5,-0.2 5.1,-0.2 5,-0.2 5.1,-0.2 5,-0.2 5,-0.2 5.1,-0.2 5,-0.3 5.1,-0.2 5,-0.2 5,-0.2 5.1,-0.2 5,-0.2 5.1,-0.2 5,-0.2 5,-0.2 5.1,-0.2 5,-0.2 5.1,-0.2 5,-0.2 5,-0.2 5.1,-0.2 5,-0.2 5.1,-0.2 5,-0.2 5.1,-0.2 5,-0.2 5,-0.3 5.1,-0.2 5,-0.2 5.1,-0.2 5,-0.2 5,-0.2 5.1,-0.2 5,-0.2 5.1,-0.2 5,-0.2 5,-0.2 5.1,-0.2 5,-0.2 5.1,-0.2 5,-0.2 5,-0.2 5.1,-0.2 5,-0.2 5.1,-0.2 5,-0.2 5,-0.2 5.1,-0.3 5,-0.2 5.1,-0.2 5,-0.2 5,-0.2 5.1,-0.2 5,-0.2 5.1,-0.2 5,-0.2 5,-0.2 5.1,-0.2 5,-0.2 5.1,-0.2 5,-0.2 5,-0.2 5.1,-0.2 5,-0.2 5.1,-0.2 5,-0.2 5,-0.2 5.1,-0.3 5,-0.2 5.1,-0.2 5,-0.2 5,-0.2 5.1,-0.2 5,-0.2 5.1,-0.2 5,-0.2 5.1,-0.2 5,-0.2 5,-0.2 5.1,-0.2 5,-0.2 5.1,-0.2 5,-0.2 5,-0.2 5.1,-0.2 5,-0.2 5.1,-0.2 5,-0.3 5,-0.2 5.1,-0.2 5,-0.2 5.1,-0.2 5,-0.2 5,-0.2 5.1,-0.2 5,-0.2 5.1,-0.2 5,-0.2 m -499,-60.9 5,2.1 5.1,2 5,2.1 5.1,2 5,2.1 5,2 5.1,2.1 5,2 5.1,2.1 5,2 5,2.1 5.1,2 5,2.1 5.1,2 5,2.1 5,2 5.1,2.1 5,2 5.1,2.1 5,2 5,2.1 5.1,2 5,2.1 5.1,2 5,2.1 5.1,2 5,2.1 5,2 5.1,2.1 5,2 5.1,2.1 5,2 5,2.1 5.1,2 5,2.1 5.1,2 5,2.1 5,2 5.1,2.1 5,2 5.1,2.1 5,2 5,2.1 5.1,2 5,2.1 5.1,2 5,2.1 5,2 5.1,2.1 5,2 5.1,2.1 5,2 5,2.1 5.1,2 5,2.1 5.1,2 5,2 5,2.1 5.1,2 5,2.1 5.1,2 5,2.1 5,2 5.1,2.1 5,2 5.1,2.1 5,2 5,2.1 5.1,2 5,2.1 5.1,2 5,2.1 5,2 5.1,2.1 5,2 5.1,2.1 5,2 5.1,2.1 5,2 5,2.1 5.1,2 5,2.1 5.1,2 5,2.1 5,2 5.1,2.1 5,2 5.1,2.1 5,2 5,2.1 5.1,2 5,2.1 5.1,2 5,2.1 5,2 5.1,2.1 5,2 5.1,2.1 5,2 m -499,-105.5 5,-3.5 5.1,-3.4 5,-3.5 5.1,-3.5 5,-3.5 5,-3.5 5.1,-3.5 5,-3.5 5.1,-3.4 5,-3.5 5,-3.5 5.1,-3.5 5,-3.5 5.1,-3.5 5,-3.4 5,-3.5 5.1,-3.5 5,-3.5 5.1,-3.5 5,-3.5 5,-3.4 5.1,-3.5 5,-3.5 5.1,-3.5 5,-3.5 5.1,-3.5 5,-3.5 5,-3.4 5.1,-3.5 5,-3.5 5.1,-3.5 5,-3.5 5,-3.5 5.1,-3.4 5,-3.5 5.1,-3.5 5,-3.5 5,-3.5 5.1,-3.5 5,-3.4 5.1,-3.5 5,-3.5 5,-3.5 5.1,-3.5 5,-3.5 5.1,-3.5 2.9,-2 m -234.8,243.5 5,-3.9 5.1,-3.9 5,-3.9 5.1,-3.9 5,-3.9 5,-3.9 5.1,-3.9 5,-3.9 5.1,-3.9 5,-3.9 5,-3.9 5.1,-3.8 5,-3.9 5.1,-3.9 5,-3.9 5,-3.9 5.1,-3.9 5,-3.9 5.1,-3.9 5,-3.9 5,-3.9 5.1,-3.9 5,-3.9 5.1,-3.9 5,-3.9 5.1,-3.9 5,-3.9 5,-3.9 5.1,-3.8 5,-3.9 5.1,-3.9 5,-3.9 5,-3.9 5.1,-3.9 5,-3.9 5.1,-3.9 5,-3.9 5,-3.9 5.1,-3.9 5,-3.9 5.1,-3.9 5,-3.9 5,-3.9 5.1,-3.9 5,-3.9 5.1,-3.8 5,-3.9 5,-3.9 5.1,-3.9 5,-3.9 5.1,-3.9 5,-3.9 5,-3.9 5.1,-3.9 5,-3.9 5.1,-3.9 5,-3.9 5,-3.9 5.1,-3.9 5,-3.9 5.1,-3.9 5,-3.9 2.7,-2 m -315.2,129.9 5,0 5.1,0 5,0 5.1,0 5,0 5,0 5.1,0 5,0 5.1,0 5,0 5,0 5.1,0 5,0 5.1,0 5,0 5,0 5.1,0 5,0 5.1,0 5,0 5,0 5.1,0 5,0 5.1,0 5,0 5.1,0 5,0 5,0 5.1,0 5,0 5.1,0 5,0 5,0 5.1,0 5,0 5.1,0 5,0 5,0 5.1,0 5,0 5.1,0 5,0 5,0 5.1,0 5,0 5.1,0 5,0 5,0 5.1,0 5,0 5.1,0 5,0 5,0 5.1,0 5,0 5.1,0 5,0 5,0 5.1,0 5,0 5.1,0 5,0 5,0 5.1,0 5,0 5.1,0 5,0 5,0 5.1,0 5,0 5.1,0 5,0 5,0 5.1,0 5,0 5.1,0 5,0 5.1,0 5,0 5,0 5.1,0 5,0 5.1,0 5,0 5,0 5.1,0 5,0 5.1,0 5,0 5,0 5.1,0 5,0 5.1,0 5,0 5,0 5.1,0 5,0 5.1,0 5,0 m -499,97.3 5,-2.4 5.1,-2.5 5,-2.4 5.1,-2.5 5,-2.4 5,-2.5 5.1,-2.5 5,-2.4 5.1,-2.5 5,-2.4 5,-2.5 5.1,-2.5 5,-2.4 5.1,-2.5 5,-2.4 5,-2.5 5.1,-2.5 5,-2.4 5.1,-2.5 5,-2.4 5,-2.5 5.1,-2.5 5,-2.4 5.1,-2.5 5,-2.4 5.1,-2.5 5,-2.5 5,-2.4 5.1,-2.5 5,-2.4 5.1,-2.5 5,-2.5 5,-2.4 5.1,-2.5 5,-2.4 5.1,-2.5 5,-2.4 5,-2.5 5.1,-2.5 5,-2.4 5.1,-2.5 5,-2.4 5,-2.5 5.1,-2.5 5,-2.4 5.1,-2.5 5,-2.4 5,-2.5 5.1,-2.5 5,-2.4 5.1,-2.5 5,-2.4 5,-2.5 5.1,-2.5 5,-2.4 5.1,-2.5 5,-2.4 5,-2.5 5.1,-2.5 5,-2.4 5.1,-2.5 5,-2.4 5,-2.5 5.1,-2.5 5,-2.4 5.1,-2.5 5,-2.4 5,-2.5 5.1,-2.5 5,-2.4 5.1,-2.5 5,-2.4 5,-2.5 5.1,-2.4 5,-2.5 5.1,-2.5 5,-2.4 5.1,-2.5 5,-2.4 5,-2.5 5.1,-2.5 5,-2.4 5.1,-2.5 5,-2.4 5,-2.5 5.1,-2.5 5,-2.4 5.1,-2.5 5,-2.4 5,-2.5 5.1,-2.5 5,-2.4 2,-1"
       id="path134"
       style="stroke:#999999" />
  </g>
  <g
     style="color:#000000;fill:none;stroke:currentColor;stroke-width:1;stroke-linecap:butt;stroke-linejoin:miter"
     id="g136"
     transform="translate(-23.462695,-6.0355379)" />
  <path
     style="fill:none;stroke:#000000;stroke-width:3.5;stroke-linecap:butt;stroke-linejoin:miter;stroke-miterlimit:4;stroke-opacity:1;stroke-dasharray:none;stroke-dashoffset:0"
     d="m 56.113576,335.91361 52.627114,-42.20338 97.88136,-48.05086 49.06779,-8.13559 201.86441,65.08475 98.13559,52.37288"
     id="path2948"
     sodipodi:nodetypes="cccccc" />
  <path
     style="fill:none;stroke:#000000;stroke-width:1;stroke-linecap:butt;stroke-linejoin:miter;stroke-miterlimit:4;stroke-opacity:1;stroke-dasharray:2, 6;stroke-dashoffset:0"
     d="m 254.82577,238.1024 -0.7191,177.61564 0.7191,-177.61564 z"
     id="path3722"
     sodipodi:nodetypes="ccc" />
  <path
     style="fill:none;stroke:#000000;stroke-width:1;stroke-linecap:butt;stroke-linejoin:miter;stroke-miterlimit:4;stroke-opacity:1;stroke-dasharray:2, 4;stroke-dashoffset:0"
     d="m 254.46623,238.46194 -198.4693,1.43819 198.4693,-1.43819 z"
     id="path3722-2"
     sodipodi:nodetypes="ccc" />
  <path
     sodipodi:type="arc"
     style="fill:#000000;fill-opacity:1;fill-rule:nonzero;stroke:#000000;stroke-width:0;stroke-linecap:round;stroke-linejoin:round;stroke-miterlimit:4;stroke-opacity:1;stroke-dasharray:none;stroke-dashoffset:0"
     id="path3768"
     sodipodi:cx="368.89401"
     sodipodi:cy="344.09167"
     sodipodi:rx="60.403698"
     sodipodi:ry="28.044575"
     d="m 429.29771,344.09167 a 60.403698,28.044575 0 0 1 -0.11091,1.69873"
     sodipodi:start="0"
     sodipodi:end="0.060609435"
     sodipodi:open="true"
     transform="translate(-23.462695,-6.0355379)" />
  <path
     sodipodi:type="arc"
     style="fill:#000000;fill-opacity:1;fill-rule:nonzero;stroke:#000000;stroke-width:0;stroke-linecap:round;stroke-linejoin:round;stroke-miterlimit:4;stroke-opacity:1;stroke-dasharray:none;stroke-dashoffset:0"
     id="path3770"
     sodipodi:cx="366.01764"
     sodipodi:cy="340.49622"
     sodipodi:rx="5.0336385"
     sodipodi:ry="5.0336418"
     d="m 371.05128,340.49622 a 5.0336385,5.0336418 0 1 1 -8.5e-4,-0.0922"
     sodipodi:start="0"
     sodipodi:end="6.2648782"
     sodipodi:open="true"
     transform="translate(-111.91097,-102.39382)" />
  <text
     xml:space="preserve"
     style="font-size:100px;font-style:normal;font-weight:normal;fill:#000000;fill-opacity:1;stroke:none;font-family:Bitstream Vera Sans"
     x="257.21524"
     y="413.96442"
     id="text3772"><tspan
       sodipodi:role="line"
       x="257.21524"
       y="413.96442"
       id="tspan3776"
       style="font-size:18px;font-style:italic;font-variant:normal;font-weight:bold;font-stretch:normal;font-family:LMMathItalic10;-inkscape-font-specification:LMMathItalic10 Bold Italic">u*</tspan></text>
  <text
     xml:space="preserve"
     style="font-size:93.06272888px;font-style:normal;font-weight:normal;fill:#000000;fill-opacity:1;stroke:none;font-family:Bitstream Vera Sans"
     x="23.31332"
     y="234.61725"
     id="text3780"
     transform="scale(1.0021453,0.9978593)"><tspan
       sodipodi:role="line"
       id="tspan3782"
       x="23.31332"
       y="234.61725"
       style="font-size:14.89003658px;font-style:italic;font-variant:normal;font-weight:bold;font-stretch:normal;font-family:LMMathItalic10;-inkscape-font-specification:LMMathItalic10 Bold Italic">L(u*)</tspan></text>
  <text
     xml:space="preserve"
     style="font-size:100px;font-style:normal;font-weight:normal;fill:#000000;fill-opacity:1;stroke:none;font-family:Bitstream Vera Sans"
     x="206.26768"
     y="295.44498"
     id="text3772-3"
     transform="matrix(0.76037166,-0.64948821,0.64948821,0.76037166,0,0)"><tspan
       sodipodi:role="line"
       x="206.26768"
       y="295.44498"
       id="tspan3776-8"
       style="font-size:18px;font-style:italic;font-variant:normal;font-weight:normal;font-stretch:normal;font-family:LMMathItalic6;-inkscape-font-specification:LMMathItalic6 Italic">x = (1,2,5,10)</tspan></text>
  <text
     xml:space="preserve"
     style="font-size:100px;font-style:normal;font-weight:normal;fill:#000000;fill-opacity:1;stroke:none;font-family:Bitstream Vera Sans"
     x="338.53961"
     y="310.79013"
     id="text3772-3-1"
     transform="matrix(0.8938614,-0.44834339,0.44834339,0.8938614,0,0)"><tspan
       sodipodi:role="line"
       x="338.53961"
       y="310.79013"
       style="font-size:18px;font-style:italic;font-variant:normal;font-weight:normal;font-stretch:normal;font-family:LMMathItalic6;-inkscape-font-specification:LMMathItalic6 Italic"
       id="tspan2944">x = (1,2,6,10)</tspan></text>
  <text
     xml:space="preserve"
     style="font-size:100px;font-style:normal;font-weight:normal;fill:#000000;fill-opacity:1;stroke:none;font-family:Bitstream Vera Sans"
     x="387.36008"
     y="286.90161"
     id="text3772-3-1-4"
     transform="matrix(0.98107773,-0.19361429,0.19361429,0.98107773,0,0)"><tspan
       sodipodi:role="line"
       x="387.36008"
       y="286.90161"
       style="font-size:18px;font-style:italic;font-variant:normal;font-weight:normal;font-stretch:normal;font-family:LMMathItalic6;-inkscape-font-specification:LMMathItalic6 Italic"
       id="tspan2944-2">x = (1,3,5,10)</tspan></text>
  <text
     xml:space="preserve"
     style="font-size:100px;font-style:normal;font-weight:normal;fill:#000000;fill-opacity:1;stroke:none;font-family:Bitstream Vera Sans"
     x="449.10074"
     y="181.03673"
     id="text3772-3-1-4-1"
     transform="matrix(0.99344877,0.11427836,-0.11427836,0.99344877,0,0)"><tspan
       sodipodi:role="line"
       x="449.10074"
       y="181.03673"
       style="font-size:18px;font-style:italic;font-variant:normal;font-weight:normal;font-stretch:normal;font-family:LMMathItalic6;-inkscape-font-specification:LMMathItalic6 Italic"
       id="tspan2998">x *= (1,3,6,10)</tspan></text>
  <text
     xml:space="preserve"
     style="font-size:100px;font-style:normal;font-weight:normal;fill:#000000;fill-opacity:1;stroke:none;font-family:Bitstream Vera Sans"
     x="333.42798"
     y="166.04655"
     id="text3772-3-1-4-1-1"
     transform="matrix(0.95620553,0.29269605,-0.29269605,0.95620553,0,0)"><tspan
       sodipodi:role="line"
       x="333.42798"
       y="166.04655"
       style="font-size:18px;font-style:italic;font-variant:normal;font-weight:normal;font-stretch:normal;font-family:LMMathItalic6;-inkscape-font-specification:LMMathItalic6 Italic"
       id="tspan2998-3">x = (1,3,7,10)</tspan></text>
  <text
     xml:space="preserve"
     style="font-size:100px;font-style:normal;font-weight:normal;fill:#000000;fill-opacity:1;stroke:none;font-family:Bitstream Vera Sans"
     x="96.428368"
     y="53.557148"
     id="text3772-3-1-4-1-1-8"
     transform="matrix(0.89132623,0.45336249,-0.45336249,0.89132623,0,0)"><tspan
       sodipodi:role="line"
       x="96.428368"
       y="53.557148"
       style="font-size:18px;font-style:italic;font-variant:normal;font-weight:normal;font-stretch:normal;font-family:LMMathItalic6;-inkscape-font-specification:LMMathItalic6 Italic"
       id="tspan3052">x = (1,4,7,10)</tspan></text>
</svg>
