<?xml version="1.0" encoding="UTF-8" standalone="no"?>
<!-- Created with Inkscape (http://www.inkscape.org/) -->

<svg
   xmlns:dc="http://purl.org/dc/elements/1.1/"
   xmlns:cc="http://creativecommons.org/ns#"
   xmlns:rdf="http://www.w3.org/1999/02/22-rdf-syntax-ns#"
   xmlns:svg="http://www.w3.org/2000/svg"
   xmlns="http://www.w3.org/2000/svg"
   xmlns:sodipodi="http://sodipodi.sourceforge.net/DTD/sodipodi-0.dtd"
   xmlns:inkscape="http://www.inkscape.org/namespaces/inkscape"
   id="svg2837"
   version="1.1"
   inkscape:version="0.47pre4 r22446"
   width="220"
   height="54.914062"
   xml:space="preserve"
   sodipodi:docname="grafo_rscp_mochila.png"
   inkscape:export-filename="/home/joel/Documentos/proposta_mestrado/figuras/grafo_rscp_mochila.png"
   inkscape:export-xdpi="654.54999"
   inkscape:export-ydpi="654.54999"><metadata
     id="metadata2843"><rdf:RDF><cc:Work
         rdf:about=""><dc:format>image/svg+xml</dc:format><dc:type
           rdf:resource="http://purl.org/dc/dcmitype/StillImage" /><dc:title></dc:title></cc:Work></rdf:RDF></metadata><defs
     id="defs2841"><linearGradient
       id="linearGradient5253"><stop
         style="stop-color:#000000;stop-opacity:1;"
         offset="0"
         id="stop5255" /><stop
         style="stop-color:#000000;stop-opacity:0;"
         offset="1"
         id="stop5257" /></linearGradient><inkscape:path-effect
       effect="skeletal"
       id="path-effect3946"
       is_visible="true"
       pattern="M 0,0 0,10 10,5 z"
       copytype="single_stretched"
       prop_scale="1"
       scale_y_rel="false"
       spacing="0"
       normal_offset="0"
       tang_offset="0"
       prop_units="false"
       vertical_pattern="false"
       fuse_tolerance="0" /><inkscape:path-effect
       effect="skeletal"
       id="path-effect3892"
       is_visible="true"
       pattern="M 0,0 0,10 10,5 z"
       copytype="single_stretched"
       prop_scale="1"
       scale_y_rel="false"
       spacing="0"
       normal_offset="0"
       tang_offset="0"
       prop_units="false"
       vertical_pattern="false"
       fuse_tolerance="0" /><inkscape:path-effect
       effect="skeletal"
       id="path-effect3888"
       is_visible="true"
       pattern="M 0,0 0,10 10,5 z"
       copytype="single_stretched"
       prop_scale="1"
       scale_y_rel="false"
       spacing="0"
       normal_offset="0"
       tang_offset="0"
       prop_units="false"
       vertical_pattern="false"
       fuse_tolerance="0" /><inkscape:path-effect
       effect="skeletal"
       id="path-effect3868"
       is_visible="true"
       pattern="M 0,0 0,10 10,5 z"
       copytype="single_stretched"
       prop_scale="1"
       scale_y_rel="false"
       spacing="0"
       normal_offset="0"
       tang_offset="0"
       prop_units="false"
       vertical_pattern="false"
       fuse_tolerance="0" /><inkscape:path-effect
       effect="skeletal"
       id="path-effect3856"
       is_visible="true"
       pattern="M 0,0 0,10 10,5 z"
       copytype="single_stretched"
       prop_scale="1"
       scale_y_rel="false"
       spacing="0"
       normal_offset="0"
       tang_offset="0"
       prop_units="false"
       vertical_pattern="false"
       fuse_tolerance="0" /><inkscape:path-effect
       effect="skeletal"
       id="path-effect3852"
       is_visible="true"
       pattern="M 0,0 0,10 10,5 z"
       copytype="single_stretched"
       prop_scale="1"
       scale_y_rel="false"
       spacing="0"
       normal_offset="0"
       tang_offset="0"
       prop_units="false"
       vertical_pattern="false"
       fuse_tolerance="0" /><inkscape:path-effect
       effect="skeletal"
       id="path-effect3832"
       is_visible="true"
       pattern="M 0,0 0,10 10,5 z"
       copytype="single_stretched"
       prop_scale="1"
       scale_y_rel="false"
       spacing="0"
       normal_offset="0"
       tang_offset="0"
       prop_units="false"
       vertical_pattern="false"
       fuse_tolerance="0" /><inkscape:path-effect
       effect="skeletal"
       id="path-effect3828"
       is_visible="true"
       pattern="M 0,0 0,10 10,5 z"
       copytype="single_stretched"
       prop_scale="1"
       scale_y_rel="false"
       spacing="0"
       normal_offset="0"
       tang_offset="0"
       prop_units="false"
       vertical_pattern="false"
       fuse_tolerance="0" /><inkscape:path-effect
       effect="skeletal"
       id="path-effect2928"
       is_visible="true"
       pattern="M 0,0 1,0"
       copytype="single_stretched"
       prop_scale="1"
       scale_y_rel="false"
       spacing="0"
       normal_offset="0"
       tang_offset="0"
       prop_units="false"
       vertical_pattern="false"
       fuse_tolerance="0" /><inkscape:perspective
       sodipodi:type="inkscape:persp3d"
       inkscape:vp_x="0 : 0.5 : 1"
       inkscape:vp_y="0 : 1000 : 0"
       inkscape:vp_z="1 : 0.5 : 1"
       inkscape:persp3d-origin="0.5 : 0.33333333 : 1"
       id="perspective2845" /><inkscape:perspective
       id="perspective3992"
       inkscape:persp3d-origin="0.5 : 0.33333333 : 1"
       inkscape:vp_z="1 : 0.5 : 1"
       inkscape:vp_y="0 : 1000 : 0"
       inkscape:vp_x="0 : 0.5 : 1"
       sodipodi:type="inkscape:persp3d" /><inkscape:perspective
       id="perspective4023"
       inkscape:persp3d-origin="0.5 : 0.33333333 : 1"
       inkscape:vp_z="1 : 0.5 : 1"
       inkscape:vp_y="0 : 1000 : 0"
       inkscape:vp_x="0 : 0.5 : 1"
       sodipodi:type="inkscape:persp3d" /><inkscape:perspective
       id="perspective4054"
       inkscape:persp3d-origin="0.5 : 0.33333333 : 1"
       inkscape:vp_z="1 : 0.5 : 1"
       inkscape:vp_y="0 : 1000 : 0"
       inkscape:vp_x="0 : 0.5 : 1"
       sodipodi:type="inkscape:persp3d" /><inkscape:perspective
       id="perspective4142"
       inkscape:persp3d-origin="0.5 : 0.33333333 : 1"
       inkscape:vp_z="1 : 0.5 : 1"
       inkscape:vp_y="0 : 1000 : 0"
       inkscape:vp_x="0 : 0.5 : 1"
       sodipodi:type="inkscape:persp3d" /><inkscape:perspective
       id="perspective4177"
       inkscape:persp3d-origin="0.5 : 0.33333333 : 1"
       inkscape:vp_z="1 : 0.5 : 1"
       inkscape:vp_y="0 : 1000 : 0"
       inkscape:vp_x="0 : 0.5 : 1"
       sodipodi:type="inkscape:persp3d" /><inkscape:perspective
       id="perspective4202"
       inkscape:persp3d-origin="0.5 : 0.33333333 : 1"
       inkscape:vp_z="1 : 0.5 : 1"
       inkscape:vp_y="0 : 1000 : 0"
       inkscape:vp_x="0 : 0.5 : 1"
       sodipodi:type="inkscape:persp3d" /><inkscape:perspective
       id="perspective4233"
       inkscape:persp3d-origin="0.5 : 0.33333333 : 1"
       inkscape:vp_z="1 : 0.5 : 1"
       inkscape:vp_y="0 : 1000 : 0"
       inkscape:vp_x="0 : 0.5 : 1"
       sodipodi:type="inkscape:persp3d" /></defs><sodipodi:namedview
     pagecolor="#ffffff"
     bordercolor="#666666"
     borderopacity="1"
     objecttolerance="10"
     gridtolerance="10"
     guidetolerance="10"
     inkscape:pageopacity="0"
     inkscape:pageshadow="2"
     inkscape:window-width="1366"
     inkscape:window-height="703"
     id="namedview2839"
     showgrid="true"
     showguides="false"
     inkscape:snap-global="true"
     inkscape:snap-bbox="true"
     inkscape:snap-center="true"
     inkscape:zoom="3.1731092"
     inkscape:cx="77.571954"
     inkscape:cy="30.916049"
     inkscape:window-x="0"
     inkscape:window-y="24"
     inkscape:window-maximized="1"
     inkscape:current-layer="g2847"><inkscape:grid
       type="xygrid"
       id="grid2855"
       empspacing="5"
       visible="true"
       enabled="true"
       snapvisiblegridlinesonly="true" /></sodipodi:namedview><g
     id="g2847"
     inkscape:groupmode="layer"
     inkscape:label="ink_ext_XXXXXX"
     transform="matrix(1.25,0,0,-1.25,-170,966.57422)"><path
   sodipodi:type="arc"
   style="fill:#000000"
   id="path2867"
   sodipodi:cx="180"
   sodipodi:cy="112.5"
   sodipodi:rx="10"
   sodipodi:ry="10"
   d="m 190,112.5 c 0,5.52285 -4.47715,10 -10,10 -5.52285,0 -10,-4.47715 -10,-10 0,-5.52285 4.47715,-10 10,-10 5.52285,0 10,4.47715 10,10 z"
   transform="matrix(0.8,0,0,-0.8,0,842)" /><path
   sodipodi:type="arc"
   style="fill:#000000"
   id="path2873"
   sodipodi:cx="240"
   sodipodi:cy="112.5"
   sodipodi:rx="10"
   sodipodi:ry="10"
   d="m 250,112.5 c 0,5.52285 -4.47715,10 -10,10 -5.52285,0 -10,-4.47715 -10,-10 0,-5.52285 4.47715,-10 10,-10 5.52285,0 10,4.47715 10,10 z"
   transform="matrix(0.8,0,0,-0.8,0,842)" /><path
   sodipodi:type="arc"
   style="fill:#000000"
   id="path2875"
   sodipodi:cx="300"
   sodipodi:cy="112.5"
   sodipodi:rx="10"
   sodipodi:ry="10"
   d="m 310,112.5 c 0,5.52285 -4.47715,10 -10,10 -5.52285,0 -10,-4.47715 -10,-10 0,-5.52285 4.47715,-10 10,-10 5.52285,0 10,4.47715 10,10 z"
   transform="matrix(0.8,0,0,-0.8,0,842)" /><path
   sodipodi:type="arc"
   style="fill:#000000"
   id="path2877"
   sodipodi:cx="380"
   sodipodi:cy="112.5"
   sodipodi:rx="10"
   sodipodi:ry="10"
   d="m 390,112.5 c 0,5.52285 -4.47715,10 -10,10 -5.52285,0 -10,-4.47715 -10,-10 0,-5.52285 4.47715,-10 10,-10 5.52285,0 10,4.47715 10,10 z"
   transform="matrix(0.8,0,0,-0.8,0,842)" /><path
   sodipodi:type="arc"
   style="fill:#000000"
   id="path2896"
   sodipodi:cx="336"
   sodipodi:cy="113.5"
   sodipodi:rx="1"
   sodipodi:ry="1"
   d="m 337,113.5 c 0,0.55228 -0.44772,1 -1,1 -0.55228,0 -1,-0.44772 -1,-1 0,-0.55228 0.44772,-1 1,-1 0.55228,0 1,0.44772 1,1 z"
   transform="matrix(0.8,0,0,-0.8,0,842)" /><path
   sodipodi:type="arc"
   style="fill:#000000"
   id="path2898"
   sodipodi:cx="340"
   sodipodi:cy="113.5"
   sodipodi:rx="1"
   sodipodi:ry="1"
   d="m 341,113.5 c 0,0.55228 -0.44772,1 -1,1 -0.55228,0 -1,-0.44772 -1,-1 0,-0.55228 0.44772,-1 1,-1 0.55228,0 1,0.44772 1,1 z"
   transform="matrix(0.8,0,0,-0.8,0,842)" /><path
   sodipodi:type="arc"
   style="fill:#000000"
   id="path2900"
   sodipodi:cx="344"
   sodipodi:cy="113.5"
   sodipodi:rx="1"
   sodipodi:ry="1"
   d="m 345,113.5 c 0,0.55228 -0.44772,1 -1,1 -0.55228,0 -1,-0.44772 -1,-1 0,-0.55228 0.44772,-1 1,-1 0.55228,0 1,0.44772 1,1 z"
   transform="matrix(0.8,0,0,-0.8,0,842)" /><path
   style="fill:none;stroke:#000000;stroke-width:1px;stroke-linecap:butt;stroke-linejoin:miter;stroke-opacity:1"
   d="m 150,52.5 -30,0"
   id="path2926"
   inkscape:path-effect="#path-effect2928"
   inkscape:original-d="m 150,52.5 -30,0" /><path
   style="fill:none;stroke:#000000;stroke-width:1px;stroke-linecap:butt;stroke-linejoin:miter;stroke-opacity:1"
   d="m 190,102.5 c 12.47682,-12.847738 25.84252,-12.362206 40,0"
   id="path2988"
   transform="matrix(0.8,0,0,-0.8,0,842)"
   sodipodi:nodetypes="cc" /><path
   style="fill:none;stroke:#000000;stroke-width:1px;stroke-linecap:butt;stroke-linejoin:miter;stroke-opacity:1"
   d="m 190,122.5 c 12.56692,11.49616 25.75493,13.67612 40,0"
   id="path2990"
   transform="matrix(0.8,0,0,-0.8,0,842)"
   sodipodi:nodetypes="cc" /><path
   style="fill:none;stroke:#000000;stroke-width:1px;stroke-linecap:butt;stroke-linejoin:miter;stroke-opacity:1"
   d="m 250,102.5 c 15.24129,-14.309644 28.10636,-10.797686 40,0"
   id="path2992"
   transform="matrix(0.8,0,0,-0.8,0,842)"
   sodipodi:nodetypes="cc" /><path
   style="fill:none;stroke:#000000;stroke-width:1px;stroke-linecap:butt;stroke-linejoin:miter;stroke-opacity:1"
   d="m 250,122.5 c 12.54997,12.53374 25.77081,14.33378 40,0"
   id="path2994"
   transform="matrix(0.8,0,0,-0.8,0,842)"
   sodipodi:nodetypes="cc" /><path
   style="fill:none;stroke:#000000;stroke-width:1px;stroke-linecap:butt;stroke-linejoin:miter;stroke-opacity:1"
   d="m 310,102.5 c 5.22427,-4.32718 9.91206,-10.26383 20,0"
   id="path2996"
   transform="matrix(0.8,0,0,-0.8,0,842)"
   sodipodi:nodetypes="cc" /><path
   style="fill:none;stroke:#000000;stroke-width:1px;stroke-linecap:butt;stroke-linejoin:miter;stroke-opacity:1"
   d="m 310,122.5 c 6.66667,8.64146 13.33333,9.83127 20,0"
   id="path2998"
   transform="matrix(0.8,0,0,-0.8,0,842)"
   sodipodi:nodetypes="cc" /><path
   style="fill:none;stroke:#000000;stroke-width:1px;stroke-linecap:butt;stroke-linejoin:miter;stroke-opacity:1"
   d="m 350,102.5 c 6.66667,-6.953788 13.33333,-6.489227 20,0"
   id="path3000"
   transform="matrix(0.8,0,0,-0.8,0,842)"
   sodipodi:nodetypes="cc" /><path
   style="fill:none;stroke:#000000;stroke-width:1px;stroke-linecap:butt;stroke-linejoin:miter;stroke-opacity:1"
   d="m 350,122.5 c 6.66667,8.69223 13.33333,8.11153 20,0"
   id="path3002"
   transform="matrix(0.8,0,0,-0.8,0,842)"
   sodipodi:nodetypes="cc" /><text
   xml:space="preserve"
   style="font-size:12px;font-style:normal;font-weight:bold;fill:#ffffff;fill-opacity:1;stroke:none;font-family:Bitstream Vera Sans;-inkscape-font-specification:Bitstream Charter Bold"
   x="173.33157"
   y="108.94597"
   id="text3004"
   transform="matrix(0.8,0,0,-0.8,0,842)"><tspan
     sodipodi:role="line"
     id="tspan3006"
     x="173.33157"
     y="108.94597" /></text>



<text
   xml:space="preserve"
   style="font-size:9.60000038px;font-style:normal;font-weight:bold;fill:#000000;fill-opacity:1;stroke:none;font-family:Bitstream Vera Sans;-inkscape-font-specification:Bitstream Charter Bold"
   x="140.44922"
   y="-748.50079"
   id="text3780"
   transform="scale(1,-1)"><tspan
     sodipodi:role="line"
     id="tspan3782"
     x="140.44922"
     y="-748.50079"
     style="fill:#cccccc">0</tspan><tspan
     sodipodi:role="line"
     x="140.44922"
     y="-736.50079"
     style="fill:#cccccc"
     id="tspan3800" /></text>



<text
   xml:space="preserve"
   style="font-size:9.60000038px;font-style:normal;font-weight:bold;fill:#cccccc;fill-opacity:1;stroke:none;font-family:Bitstream Vera Sans;-inkscape-font-specification:Bitstream Charter Bold"
   x="188.69766"
   y="-748.4375"
   id="text3802"
   transform="scale(1,-1)"><tspan
     sodipodi:role="line"
     id="tspan3804"
     x="188.69766"
     y="-748.4375">1</tspan></text>



<text
   xml:space="preserve"
   style="font-size:9.60000038px;font-style:normal;font-weight:bold;fill:#cccccc;fill-opacity:1;stroke:none;font-family:Bitstream Vera Sans;-inkscape-font-specification:Bitstream Charter Bold"
   x="236.7211"
   y="-748.50549"
   id="text3806"
   transform="scale(1,-1)"><tspan
     sodipodi:role="line"
     id="tspan3808"
     x="236.7211"
     y="-748.50549">2</tspan></text>



<text
   xml:space="preserve"
   style="font-size:9.60000038px;font-style:normal;font-weight:bold;fill:#cccccc;fill-opacity:1;stroke:none;font-family:Bitstream Vera Sans;-inkscape-font-specification:Bitstream Charter Bold"
   x="300.55469"
   y="-749.31171"
   id="text3810"
   transform="scale(1,-1)"><tspan
     sodipodi:role="line"
     id="tspan3812"
     x="300.55469"
     y="-749.31171">n</tspan></text>



<path
   style="fill:#000000;fill-rule:evenodd;stroke:none"
   d="M 230.64783,96.352766 223.95291,103.78095 230,102.5 z"
   id="path3826"
   inkscape:path-effect="#path-effect3828"
   inkscape:original-d="M 227.30037,100.06686 230,102.5"
   transform="matrix(0.8,0,0,-0.8,0,842)" /><path
   style="fill:#000000;fill-rule:evenodd;stroke:none"
   d="m 223.88467,121.3739 6.8314,7.30288 L 230,122.5 z"
   id="path3830"
   inkscape:path-effect="#path-effect3832"
   inkscape:original-d="M 227.30037,125.02534 230,122.5"
   transform="matrix(0.8,0,0,-0.8,0,842)" /><path
   style="fill:#000000;fill-rule:evenodd;stroke:none"
   d="M 291.31778,96.625027 284.06414,103.50869 290,102.5 z"
   id="path3850"
   inkscape:path-effect="#path-effect3852"
   inkscape:original-d="M 287.69096,100.06686 290,102.5"
   transform="matrix(0.8,0,0,-0.8,0,842)" /><path
   style="fill:#000000;fill-rule:evenodd;stroke:none"
   d="m 283.79084,121.86032 7.35456,6.77572 L 290,122.5 z"
   id="path3854"
   inkscape:path-effect="#path-effect3856"
   inkscape:original-d="M 287.46812,125.24818 290,122.5"
   transform="matrix(0.8,0,0,-0.8,0,842)" /><path
   style="fill:#000000;fill-rule:evenodd;stroke:none"
   d="M 331.51366,96.715819 324.09192,103.4179 330,102.5 z"
   id="path3866"
   inkscape:path-effect="#path-effect3868"
   inkscape:original-d="M 327.80279,100.06686 330,102.5"
   transform="matrix(0.8,0,0,-0.8,0,842)" /><path
   style="fill:#000000;fill-rule:evenodd;stroke:none"
   d="M 370.93406,96.462288 364.00382,103.67143 370,102.5 z"
   id="path3886"
   inkscape:path-effect="#path-effect3888"
   inkscape:original-d="M 367.46894,100.06686 370,102.5"
   transform="matrix(0.8,0,0,-0.8,0,842)" /><path
   style="fill:#000000;fill-rule:evenodd;stroke:none"
   d="m 363.86308,122.03242 7.6574,6.43152 L 370,122.5 z"
   id="path3890"
   inkscape:path-effect="#path-effect3892"
   inkscape:original-d="M 367.69178,125.24818 370,122.5"
   transform="matrix(0.8,0,0,-0.8,0,842)" /><path
   style="fill:#000000;fill-rule:evenodd;stroke:none"
   d="m 323.92418,121.96197 7.66012,6.42828 L 330,122.5 z"
   id="path3944"
   inkscape:path-effect="#path-effect3946"
   inkscape:original-d="M 327.75424,125.17611 330,122.5"
   transform="matrix(0.8,0,0,-0.8,0,842)" /><path
   style="fill:#000000;stroke:#000000;stroke-width:0.15757415000000000;stroke-opacity:1;fill-opacity:1"
   d="m 224.70435,103.117 c 0.20611,-0.25455 0.79688,-0.93474 1.31282,-1.51151 l 0.93807,-1.04869 -0.38656,-0.30737 c -1.31699,-1.047136 -4.48692,-3.002179 -6.37439,-3.931371 -4.10114,-2.018972 -6.92086,-2.722349 -10.9514,-2.731824 -3.78056,-0.0089 -6.1169,0.526982 -9.53324,2.186559 -2.87102,1.394674 -4.92468,2.845444 -8.02147,5.666606 -1.2769,1.16325 -1.38697,1.22973 -1.63138,0.98532 -0.24441,-0.24441 -0.21467,-0.3109 0.44088,-0.98538 0.96433,-0.99219 3.7443,-3.286059 5.286,-4.361701 2.80709,-1.958497 6.7272,-3.586083 9.95552,-4.133422 6.39324,-1.083929 13.57862,1.032064 20.39291,6.00542 l 1.36817,0.998546 1.45271,-1.574342 c 0.799,-0.865887 1.47791,-1.549157 1.50869,-1.518378 0.0308,0.03078 -0.0525,1.034083 -0.18503,2.229561 -0.13254,1.195476 -0.22535,2.405756 -0.20625,2.689516 0.0429,0.63722 -0.23191,0.99435 -0.69841,0.90754 -0.19445,-0.0362 -1.36647,0.15101 -2.60448,0.41598 -1.23802,0.26497 -2.29301,0.48176 -2.34442,0.48176 -0.0514,0 0.0752,-0.20827 0.28126,-0.46282 l 0,0 z"
   id="path3950"
   transform="matrix(0.8,0,0,-0.8,0,842)" /><path
   style="fill:#000000;stroke:#000000;stroke-width:0.15757415000000000;stroke-opacity:1;fill-opacity:1"
   d="m 285.86289,101.95499 1.37835,-1.29418 -1.0632,-0.796781 c -4.47609,-3.354468 -8.01144,-5.073346 -12.34949,-6.004292 -1.8255,-0.391755 -5.96307,-0.389446 -7.92748,0.0044 -4.46343,0.894934 -9.41469,3.525991 -13.79801,7.332143 -1.85558,1.61125 -1.69633,1.50737 -1.96672,1.28296 -0.13163,-0.10924 -0.23932,-0.25063 -0.23932,-0.31419 0,-0.15813 2.63345,-2.412353 4.17571,-3.5744 2.66494,-2.007934 5.55054,-3.591305 8.41497,-4.61741 2.83688,-1.016237 3.92158,-1.187293 7.50002,-1.182755 2.88094,0.0037 3.29352,0.03987 4.80602,0.421814 4.02747,1.017051 8.3765,3.240555 12.21199,6.243558 l 0.78787,0.616863 1.72296,-1.594911 c 0.94762,-0.877201 1.68227,-1.485455 1.63256,-1.351676 -0.0497,0.133778 -0.31852,1.303767 -0.59733,2.599973 -0.55724,2.590564 -0.74666,3.137974 -1.01106,2.921884 -0.10263,-0.0839 -0.99321,0.009 -2.21985,0.23146 -3.1113,0.56427 -3.07087,0.58991 -1.45799,-0.92448 l 0,0 z"
   id="path3952"
   transform="matrix(0.8,0,0,-0.8,0,842)" /><path
   style="fill:#000000;stroke:#000000;stroke-width:0.15757415000000000;stroke-opacity:1;fill-opacity:1"
   d="m 325.84201,101.97497 c 0.78316,-0.70934 1.4188,-1.32979 1.41254,-1.37877 -0.024,-0.18778 -1.14046,-1.015301 -2.35322,-1.744194 -1.59988,-0.961555 -2.91087,-1.415268 -4.41109,-1.526612 -2.68467,-0.199251 -4.48849,0.641517 -8.3638,3.898406 -1.67592,1.40847 -1.8395,1.50925 -2.00907,1.23772 -0.10153,-0.16257 -0.1846,-0.33087 -0.1846,-0.374 0,-0.16709 3.91565,-3.32788 4.95781,-4.002045 1.62647,-1.052158 3.31046,-1.591772 4.97565,-1.59438 0.74012,-0.0012 1.76008,0.105833 2.26659,0.237761 1.19977,0.312501 3.36991,1.444948 4.66039,2.431939 0.56332,0.430849 1.08804,0.78594 1.16604,0.789092 0.078,0.0032 0.83342,-0.632444 1.67871,-1.412436 0.84529,-0.779992 1.56901,-1.418168 1.60827,-1.418168 0.0936,0 -1.20829,5.079157 -1.36814,5.337797 -0.0676,0.10933 -0.20703,0.16648 -0.3099,0.12701 -0.10288,-0.0395 -1.24797,0.0955 -2.54465,0.29995 -1.29667,0.20445 -2.41335,0.37374 -2.48152,0.37619 -0.0682,0.002 0.51684,-0.57592 1.29999,-1.28526 l 0,0 z"
   id="path3954"
   transform="matrix(0.8,0,0,-0.8,0,842)" /><path
   style="fill:#000000;stroke:#000000;stroke-width:0.15757415000000000;stroke-opacity:1;fill-opacity:1"
   d="m 364.52781,103.32421 c 0,-0.0539 0.57947,-0.69171 1.28771,-1.41731 0.70824,-0.7256 1.25263,-1.35436 1.20974,-1.39724 -0.41551,-0.41551 -2.98083,-1.747377 -3.98398,-2.068407 -3.97253,-1.271294 -7.74579,-0.218147 -11.60818,3.239937 -1.04669,0.93712 -1.12752,0.97975 -1.37526,0.72525 -0.24701,-0.25375 -0.19531,-0.33428 0.83981,-1.30818 1.47916,-1.391683 3.61761,-2.756743 5.26612,-3.36158 1.86199,-0.683159 4.35812,-0.816051 6.26597,-0.333596 1.34086,0.339077 3.35535,1.264427 4.56604,2.097402 l 0.71122,0.489331 1.56814,-1.632234 c 0.86248,-0.897729 1.53436,-1.490418 1.49308,-1.317087 -0.20344,0.85409 -0.7368,4.817514 -0.66413,4.935104 0.13268,0.21469 -0.39096,0.86476 -0.56023,0.69549 -0.0915,-0.0915 -0.96603,0.0204 -2.30598,0.29508 -2.24944,0.46113 -2.71007,0.52199 -2.71007,0.35804 z"
   id="path3956"
   transform="matrix(0.8,0,0,-0.8,0,842)" /><path
   style="fill:#ffffff;stroke:#000000;stroke-width:0.55800003;stroke-opacity:1;fill-opacity:1;stroke-miterlimit:4;stroke-dasharray:4.46400023,4.46400023;stroke-dashoffset:0"
   d="m 358.30363,129.03966 c -2.3691,-0.45191 -4.39519,-1.72587 -6.87539,-4.32307 -1.72311,-1.80441 -1.72713,-1.81045 -1.41554,-2.12204 0.3116,-0.31159 0.3137,-0.31096 0.74087,0.22417 0.88426,1.10773 3.51218,3.54989 4.36794,4.05917 1.5677,0.93297 2.74659,1.32993 4.1862,1.4096 1.57571,0.0872 2.69129,-0.13251 4.19587,-0.82639 1.09257,-0.50388 3.70299,-2.34622 3.70299,-2.61344 0,-0.0763 -0.69135,-0.72026 -1.53635,-1.43099 l -1.53634,-1.29225 1.41816,0.1168 c 0.78,0.0642 2.04751,0.14491 2.81669,0.17925 1.28187,0.0572 1.93161,0.25193 1.76115,0.52772 -0.0369,0.0597 0.21033,1.20396 0.54945,2.54273 0.33911,1.33876 0.61828,2.4874 0.62037,2.55253 0.002,0.0651 -0.74968,-0.51771 -1.67059,-1.2952 l -1.6744,-1.41362 -0.8074,0.6719 c -3.13989,2.61294 -5.96568,3.58211 -8.84368,3.03313 z"
   id="path3958"
   transform="matrix(0.8,0,0,-0.8,0,842)" /><path
   style="fill:#ffffff;stroke:#000000;stroke-width:0.55800003;stroke-opacity:1;fill-opacity:1;stroke-miterlimit:4;stroke-dasharray:4.46400023,4.46400023;stroke-dashoffset:0"
   d="m 319.10917,129.73196 c -2.62606,-0.44218 -5.22637,-2.1721 -8.07626,-5.37292 -0.64582,-0.72535 -1.17627,-1.40495 -1.17877,-1.51023 -0.003,-0.10529 0.12397,-0.26021 0.28106,-0.34429 0.23735,-0.12702 0.40379,-0.005 0.98484,0.7243 1.02257,1.2828 3.59573,3.66943 4.61382,4.27937 1.61622,0.96826 2.72937,1.33421 4.27925,1.40679 1.63849,0.0767 2.83895,-0.24338 4.35274,-1.16067 0.99875,-0.60521 3.13632,-2.52013 3.12392,-2.79855 -0.004,-0.10022 -0.74378,-0.78424 -1.64293,-1.52006 -0.89915,-0.73582 -1.62231,-1.34586 -1.60702,-1.35565 0.0153,-0.01 0.59506,0.0404 1.28839,0.11143 0.69332,0.0711 1.95784,0.16649 2.81003,0.21202 0.85219,0.0455 1.61445,0.12298 1.69392,0.1721 0.0795,0.0491 0.145,0.28011 0.14563,0.51332 6.3e-4,0.23322 0.27356,1.43448 0.60652,2.66947 0.33296,1.23498 0.57328,2.24543 0.53403,2.24543 -0.0392,0 -0.73987,-0.57182 -1.55695,-1.27071 l -1.4856,-1.27071 -1.42284,1.3394 c -1.66919,1.57131 -3.62362,2.63776 -5.35579,2.92245 -1.14778,0.18864 -1.31038,0.18917 -2.38799,0.008 l 0,0 z"
   id="path3960"
   transform="matrix(0.8,0,0,-0.8,0,842)" /><path
   style="fill:#ffffff;stroke:#000000;stroke-width:0.55800003;stroke-opacity:1;fill-opacity:1;stroke-miterlimit:4;stroke-dasharray:4.46400023,4.46400023;stroke-dashoffset:0"
   d="m 267.93486,132.88011 c -5.8203,-0.71461 -11.05059,-3.48259 -17.15399,-9.07823 -0.97495,-0.89384 -0.99429,-0.92674 -0.70054,-1.19148 0.2908,-0.26208 0.35526,-0.22379 1.7245,1.02423 4.92801,4.49172 9.24913,6.96018 14.16035,8.08915 0.97569,0.22429 1.91943,0.29073 4.17571,0.29398 2.6948,0.004 3.04348,-0.0293 4.61339,-0.43856 3.01376,-0.78573 5.78427,-2.08883 8.65335,-4.07006 1.49841,-1.03472 3.48968,-2.6078 3.54083,-2.7972 0.0143,-0.0528 -0.60077,-0.66275 -1.36672,-1.35549 -0.76594,-0.69273 -1.36835,-1.2838 -1.33868,-1.31347 0.0297,-0.0297 1.1651,0.0613 2.52317,0.20206 1.35806,0.1408 2.59874,0.2149 2.75706,0.16465 0.3455,-0.10966 0.53197,0.14759 0.57525,0.79359 0.0176,0.26302 0.21903,1.45783 0.44759,2.65514 0.22855,1.19731 0.37351,2.21896 0.32214,2.27033 -0.0514,0.0514 -0.49927,-0.2933 -0.99533,-0.76593 -0.49607,-0.47264 -1.19956,-1.13523 -1.56333,-1.47243 l -0.66139,-0.61308 -1.49094,1.19918 c -3.90762,3.14296 -8.18221,5.30759 -12.00507,6.0793 -1.88806,0.38114 -4.60169,0.52269 -6.21735,0.32432 z"
   id="path3962"
   transform="matrix(0.8,0,0,-0.8,0,842)" /><path
   style="stroke:#000000;stroke-width:0.558;stroke-opacity:1;fill-opacity:1;stroke-miterlimit:4;stroke-dasharray:4.464,4.464;stroke-dashoffset:0;opacity:1;fill:#ffffff"
   d="m 208.05668,132.24119 c -5.67399,-0.64246 -11.22817,-3.35495 -17.04627,-8.32487 -1.18515,-1.01237 -1.20402,-1.03986 -0.91602,-1.33447 0.28865,-0.29528 0.31381,-0.28356 1.36765,0.63729 4.82129,4.2129 10.02495,6.9835 14.94011,7.9546 1.67491,0.33091 6.27101,0.2919 7.95749,-0.0676 2.73014,-0.58188 5.36182,-1.6377 8.00447,-3.21136 1.46787,-0.87409 4.60147,-3.1268 4.60147,-3.30794 0,-0.048 -0.60671,-0.72488 -1.34824,-1.5041 -0.74152,-0.77922 -1.32249,-1.4425 -1.29103,-1.47396 0.0315,-0.0315 1.18069,0.15121 2.55384,0.40594 1.37315,0.25472 2.55994,0.42401 2.63731,0.37619 0.20725,-0.12809 0.62681,0.2723 0.53528,0.51082 -0.0433,0.11275 0.0618,1.35221 0.2334,2.75435 0.17164,1.40215 0.28777,2.57365 0.25807,2.60335 -0.0297,0.0297 -0.67474,-0.61839 -1.43344,-1.44021 -0.75869,-0.82182 -1.44956,-1.49421 -1.53526,-1.49421 -0.0857,0 -0.70431,0.41753 -1.37469,0.92784 -4.78155,3.63989 -9.38506,5.57481 -14.25277,5.99063 -2.21627,0.18933 -2.19854,0.18934 -3.89137,-0.002 l 0,0 z"
   id="path3964"
   transform="matrix(0.8,0,0,-0.8,0,842)" /><text
   xml:space="preserve"
   style="font-size:6.4000001px;font-style:normal;font-weight:bold;fill:#000000;fill-opacity:1;stroke:none;font-family:Bitstream Vera Sans;-inkscape-font-specification:Bitstream Charter Bold"
   x="155.41251"
   y="-768.59375"
   id="text3966"
   transform="scale(1,-1)"><tspan
     sodipodi:role="line"
     id="tspan3968"
     x="155.41251"
     y="-768.59375"
     style="font-size:6.4000001px">M-v<tspan
   style="font-size:3.20000005px"
   id="tspan3980">1</tspan>/w<tspan
   style="font-size:3.20000005px"
   id="tspan3982">1</tspan></tspan></text>



<text
   xml:space="preserve"
   style="font-size:6.4000001px;font-style:normal;font-weight:bold;fill:#000000;fill-opacity:1;stroke:none;font-family:Bitstream Vera Sans;-inkscape-font-specification:Bitstream Charter Bold"
   x="161.27657"
   y="-729.92188"
   id="text3966-9"
   transform="scale(1,-1)"><tspan
     sodipodi:role="line"
     id="tspan3968-4"
     x="161.27657"
     y="-729.92188"
     style="font-size:6.4000001px">M/0</tspan></text>



<text
   xml:space="preserve"
   style="font-size:6.4000001px;font-style:normal;font-weight:bold;fill:#000000;fill-opacity:1;stroke:none;font-family:Bitstream Vera Sans;-inkscape-font-specification:Bitstream Charter Bold"
   x="203.41251"
   y="-768.59375"
   id="text3966-4"
   transform="scale(1,-1)"><tspan
     sodipodi:role="line"
     id="tspan3968-5"
     x="203.41251"
     y="-768.59375"
     style="font-size:6.4000001px">M-v<tspan
   style="font-size:3.20000005px"
   id="tspan4073">2</tspan>/w<tspan
   style="font-size:3.20000005px"
   id="tspan4071">2</tspan></tspan></text>



<text
   xml:space="preserve"
   style="font-size:6.4000001px;font-style:normal;font-weight:bold;fill:#000000;fill-opacity:1;stroke:none;font-family:Bitstream Vera Sans;-inkscape-font-specification:Bitstream Charter Bold"
   x="209.27657"
   y="-729.92188"
   id="text3966-9-6"
   transform="scale(1,-1)"><tspan
     sodipodi:role="line"
     id="tspan3968-4-1"
     x="209.27657"
     y="-729.92188"
     style="font-size:6.4000001px">M/0</tspan></text>



<text
   xml:space="preserve"
   style="font-size:6.4000001px;font-style:normal;font-weight:bold;fill:#000000;fill-opacity:1;stroke:none;font-family:Bitstream Vera Sans;-inkscape-font-specification:Bitstream Charter Bold"
   x="243.41251"
   y="-768.59375"
   id="text3966-4-5"
   transform="scale(1,-1)"><tspan
     sodipodi:role="line"
     id="tspan3968-5-5"
     x="243.41251"
     y="-768.59375"
     style="font-size:6.4000001px">M-v<tspan
   style="font-size:3.20000005px"
   id="tspan4165">3</tspan>/w<tspan
   style="font-size:3.20000005px"
   id="tspan4167">3</tspan></tspan></text>



<text
   xml:space="preserve"
   style="font-size:6.4000001px;font-style:normal;font-weight:bold;fill:#000000;fill-opacity:1;stroke:none;font-family:Bitstream Vera Sans;-inkscape-font-specification:Bitstream Charter Bold"
   x="249.27657"
   y="-729.92188"
   id="text3966-9-6-6"
   transform="scale(1,-1)"><tspan
     sodipodi:role="line"
     id="tspan3968-4-1-5"
     x="249.27657"
     y="-729.92188"
     style="font-size:6.4000001px">M/0</tspan></text>



<text
   xml:space="preserve"
   style="font-size:6.4000001px;font-style:normal;font-weight:bold;fill:#000000;fill-opacity:1;stroke:none;font-family:Bitstream Vera Sans;-inkscape-font-specification:Bitstream Charter Bold"
   x="275.41251"
   y="-768.59375"
   id="text3966-4-5-6"
   transform="scale(1,-1)"><tspan
     sodipodi:role="line"
     id="tspan3968-5-5-9"
     x="275.41251"
     y="-768.59375"
     style="font-size:6.4000001px">M-v<tspan
   style="font-size:3.20000005px"
   id="tspan4250">n</tspan>/w<tspan
   style="font-size:3.20000005px"
   id="tspan4252">n</tspan></tspan></text>



<text
   xml:space="preserve"
   style="font-size:6.4000001px;font-style:normal;font-weight:bold;fill:#000000;fill-opacity:1;stroke:none;font-family:Bitstream Vera Sans;-inkscape-font-specification:Bitstream Charter Bold"
   x="281.27655"
   y="-729.92188"
   id="text3966-9-6-6-4"
   transform="scale(1,-1)"><tspan
     sodipodi:role="line"
     id="tspan3968-4-1-5-5"
     x="281.27655"
     y="-729.92188"
     style="font-size:6.4000001px">M/0</tspan></text>



<text
   xml:space="preserve"
   style="font-size:12px;font-style:normal;font-weight:bold;fill:#000000;fill-opacity:1;stroke:none;font-family:Bitstream Vera Sans;-inkscape-font-specification:Bitstream Charter Bold"
   x="364.62659"
   y="165.04237"
   id="text4254"
   transform="matrix(0.8,0,0,-0.8,0,842)"><tspan
     sodipodi:role="line"
     id="tspan4256"
     x="364.62659"
     y="165.04237" /></text>



</g></svg>