<?xml version="1.0" encoding="UTF-8" standalone="no"?>
<!-- Generated by graphviz version 2.26.3 (20100126.1600)
 -->

<!-- Title: G Pages: 1 -->

<svg
   xmlns:dc="http://purl.org/dc/elements/1.1/"
   xmlns:cc="http://creativecommons.org/ns#"
   xmlns:rdf="http://www.w3.org/1999/02/22-rdf-syntax-ns#"
   xmlns:svg="http://www.w3.org/2000/svg"
   xmlns="http://www.w3.org/2000/svg"
   xmlns:sodipodi="http://sodipodi.sourceforge.net/DTD/sodipodi-0.dtd"
   xmlns:inkscape="http://www.inkscape.org/namespaces/inkscape"
   width="234pt"
   height="74pt"
   viewBox="0.00 0.00 234.00 74.00"
   id="svg2"
   version="1.1"
   inkscape:version="0.48.0 r9654"
   sodipodi:docname="grafo1_caminho_minimo.svg">
  <metadata
     id="metadata61">
    <rdf:RDF>
      <cc:Work
         rdf:about="">
        <dc:format>image/svg+xml</dc:format>
        <dc:type
           rdf:resource="http://purl.org/dc/dcmitype/StillImage" />
      </cc:Work>
    </rdf:RDF>
  </metadata>
  <defs
     id="defs59" />
  <sodipodi:namedview
     pagecolor="#ffffff"
     bordercolor="#666666"
     borderopacity="1"
     objecttolerance="10"
     gridtolerance="10"
     guidetolerance="10"
     inkscape:pageopacity="0"
     inkscape:pageshadow="2"
     inkscape:window-width="640"
     inkscape:window-height="480"
     id="namedview57"
     showgrid="false"
     inkscape:zoom="1.6376068"
     inkscape:cx="146.25"
     inkscape:cy="46.25"
     inkscape:window-x="0"
     inkscape:window-y="24"
     inkscape:window-maximized="0"
     inkscape:current-layer="svg2" />
  <g
     id="graph1"
     class="graph"
     transform="scale(1 1) rotate(0) translate(4 70)">
    <title
       id="title5">G</title>
    <polygon
       fill="white"
       stroke="white"
       points="-4,5 -4,-70 231,-70 231,5 -4,5"
       id="polygon7" />
    <!-- 0 -->
    <g
       id="node1"
       class="node">
      <title
         id="title10">0</title>
      <ellipse
         fill="#874444"
         stroke="#333333"
         cx="19"
         cy="-18"
         rx="17.8879"
         ry="18.3848"
         id="ellipse12"
         d="M 36.887899,-18 C 36.887899,-7.8463554 28.879214,0.38479996 19,0.38479996 9.120786,0.38479996 1.1121006,-7.8463554 1.1121006,-18 1.1121006,-28.153645 9.120786,-36.3848 19,-36.3848 c 9.879214,0 17.887899,8.231155 17.887899,18.3848 z" />
      <text
         text-anchor="middle"
         x="19"
         y="-14.4"
         font-family="Trebuchet MS"
         font-size="14.00"
         fill="#ffffff"
         id="text14">0</text>
    </g>
    <!-- 1 -->
    <g
       id="node2"
       class="node">
      <title
         id="title17">1</title>
      <ellipse
         fill="#395b86"
         stroke="#333333"
         cx="113"
         cy="-48"
         rx="17.8879"
         ry="18.3848"
         id="ellipse19"
         d="m 130.8879,-48 c 0,10.153645 -8.00869,18.3848 -17.8879,18.3848 -9.87921,0 -17.887899,-8.231155 -17.887899,-18.3848 0,-10.153645 8.008689,-18.3848 17.887899,-18.3848 9.87921,0 17.8879,8.231155 17.8879,18.3848 z" />
      <text
         text-anchor="middle"
         x="113"
         y="-44.4"
         font-family="Trebuchet MS"
         font-size="14.00"
         fill="white"
         id="text21">1</text>
    </g>
    <!-- 0&#45;&gt;1 -->
    <g
       id="edge2"
       class="edge">
      <title
         id="title24">0-&gt;1</title>
      <path
         fill="none"
         stroke="#666666"
         d="M36.6807,-23.6428C51.9109,-28.5035 73.9799,-35.5468 90.4729,-40.8105"
         id="path26" />
      <polygon
         fill="#666666"
         stroke="#666666"
         points="95.3986,-42.3825 89.9512,-43.0057 93.0169,-41.6224 90.6353,-40.8623 90.6353,-40.8623 90.6353,-40.8623 93.0169,-41.6224 91.3194,-38.7188 95.3986,-42.3825 95.3986,-42.3825"
         id="polygon28" />
      <text
         text-anchor="middle"
         x="66"
         y="-39.099998"
         font-family="Trebuchet MS"
         font-size="11.00"
         id="text30">2</text>
    </g>
    <!-- 2 -->
    <g
       id="node4"
       class="node">
      <title
         id="title33">2</title>
      <ellipse
         fill="#337733"
         stroke="#333333"
         cx="207"
         cy="-18"
         rx="17.8879"
         ry="18.3848"
         id="ellipse35"
         d="m 224.8879,-18 c 0,10.1536446 -8.00869,18.38479996 -17.8879,18.38479996 -9.87921,0 -17.8879,-8.23115536 -17.8879,-18.38479996 0,-10.153645 8.00869,-18.3848 17.8879,-18.3848 9.87921,0 17.8879,8.231155 17.8879,18.3848 z" />
      <text
         text-anchor="middle"
         x="207"
         y="-14.4"
         font-family="Trebuchet MS"
         font-size="14.00"
         fill="#ffffff"
         id="text37">2</text>
    </g>
    <!-- 0&#45;&gt;2 -->
    <g
       id="edge6"
       class="edge">
      <title
         id="title40">0-&gt;2</title>
      <path
         fill="none"
         stroke="#ff5555"
         stroke-width="2"
         d="M37.4106,-14.5351C52.5427,-11.8721 74.5746,-8.41695 94,-7 110.844,-5.77134 115.156,-5.77134 132,-7 149.301,-8.26197 168.669,-11.1406 183.389,-13.6366"
         id="path42" />
      <polygon
         fill="#ff5555"
         stroke="#ff5555"
         points="188.589,-14.5351 183.279,-15.9009 186.041,-14.6021 183.577,-14.1765 183.662,-13.6838 183.748,-13.1911 186.211,-13.6167 184.046,-11.4666 188.589,-14.5351 188.589,-14.5351"
         id="polygon44" />
      <text
         text-anchor="middle"
         x="113"
         y="-11.1"
         font-family="Trebuchet MS"
         font-size="11.00"
         id="text46">1</text>
    </g>
    <!-- 1&#45;&gt;2 -->
    <g
       id="edge4"
       class="edge">
      <title
         id="title49">1-&gt;2</title>
      <path
         fill="none"
         stroke="#666666"
         d="M130.681,-42.3572C145.911,-37.4965 167.98,-30.4532 184.473,-25.1895"
         id="path51" />
      <polygon
         fill="#666666"
         stroke="#666666"
         points="189.399,-23.6175 185.319,-27.2812 187.017,-24.3776 184.635,-25.1377 184.635,-25.1377 184.635,-25.1377 187.017,-24.3776 183.951,-22.9943 189.399,-23.6175 189.399,-23.6175"
         id="polygon53" />
      <text
         text-anchor="middle"
         x="160"
         y="-39.099998"
         font-family="Trebuchet MS"
         font-size="11.00"
         id="text55">2</text>
    </g>
  </g>
</svg>
