<?xml version="1.0" encoding="UTF-8" standalone="no"?>
<!DOCTYPE svg PUBLIC "-//W3C//DTD SVG 1.1//EN"
 "http://www.w3.org/Graphics/SVG/1.1/DTD/svg11.dtd">
<!-- Generated by graphviz version 2.26.3 (20100126.1600)
 -->
<!-- Title: G Pages: 1 -->
<svg width="234pt" height="74pt"
 viewBox="0.00 0.00 234.00 74.00" xmlns="http://www.w3.org/2000/svg" xmlns:xlink="http://www.w3.org/1999/xlink">
<g id="graph1" class="graph" transform="scale(1 1) rotate(0) translate(4 70)">
<title>G</title>
<polygon fill="white" stroke="white" points="-4,5 -4,-70 231,-70 231,5 -4,5"/>
<!-- 0 -->
<g id="node1" class="node"><title>0</title>
<ellipse fill="#874444" stroke="#333333" cx="19" cy="-18" rx="17.8879" ry="18.3848"/>
<text text-anchor="middle" x="19" y="-14.4" font-family="Trebuchet MS" font-size="14.00" fill="#ffffff">0</text>
</g>
<!-- 1 -->
<g id="node2" class="node"><title>1</title>
<ellipse fill="#395b86" stroke="#333333" cx="113" cy="-48" rx="17.8879" ry="18.3848"/>
<text text-anchor="middle" x="113" y="-44.4" font-family="Trebuchet MS" font-size="14.00" fill="white">1</text>
</g>
<!-- 0&#45;&gt;1 -->
<g id="edge2" class="edge"><title>0&#45;&gt;1</title>
<path fill="none" stroke="#ff5555" stroke-width="2" d="M36.6807,-23.6428C51.9109,-28.5035 73.9799,-35.5468 90.4729,-40.8105"/>
<polygon fill="#ff5555" stroke="#ff5555" points="95.3986,-42.3825 89.9512,-43.0057 92.8649,-42.0987 90.4833,-41.3386 90.6353,-40.8623 90.7873,-40.3859 93.169,-41.1461 91.3194,-38.7188 95.3986,-42.3825 95.3986,-42.3825"/>
<text text-anchor="middle" x="66" y="-39.1" font-family="Trebuchet MS" font-size="11.00">2/1</text>
</g>
<!-- 2 -->
<g id="node4" class="node"><title>2</title>
<ellipse fill="#337733" stroke="#333333" cx="207" cy="-18" rx="17.8879" ry="18.3848"/>
<text text-anchor="middle" x="207" y="-14.4" font-family="Trebuchet MS" font-size="14.00" fill="#ffffff">2</text>
</g>
<!-- 0&#45;&gt;2 -->
<g id="edge6" class="edge"><title>0&#45;&gt;2</title>
<path fill="none" stroke="#666666" d="M37.4106,-14.5351C52.5427,-11.8721 74.5746,-8.41695 94,-7 110.844,-5.77134 115.156,-5.77134 132,-7 149.301,-8.26197 168.669,-11.1406 183.389,-13.6366"/>
<polygon fill="#666666" stroke="#666666" points="188.589,-14.5351 183.279,-15.9009 186.126,-14.1094 183.662,-13.6838 183.662,-13.6838 183.662,-13.6838 186.126,-14.1094 184.046,-11.4666 188.589,-14.5351 188.589,-14.5351"/>
<text text-anchor="middle" x="113" y="-11.1" font-family="Trebuchet MS" font-size="11.00">1/3</text>
</g>
<!-- 1&#45;&gt;2 -->
<g id="edge4" class="edge"><title>1&#45;&gt;2</title>
<path fill="none" stroke="#ff5555" stroke-width="2" d="M130.681,-42.3572C145.911,-37.4965 167.98,-30.4532 184.473,-25.1895"/>
<polygon fill="#ff5555" stroke="#ff5555" points="189.399,-23.6175 185.319,-27.2812 187.169,-24.8539 184.787,-25.6141 184.635,-25.1377 184.483,-24.6614 186.865,-23.9013 183.951,-22.9943 189.399,-23.6175 189.399,-23.6175"/>
<text text-anchor="middle" x="160" y="-39.1" font-family="Trebuchet MS" font-size="11.00">2/1</text>
</g>
</g>
</svg>
