<?xml version="1.0" encoding="UTF-8" standalone="no"?>
<!DOCTYPE svg PUBLIC "-//W3C//DTD SVG 1.0//EN"
 "http://www.w3.org/TR/2001/REC-SVG-20010904/DTD/svg10.dtd" [
 <!ATTLIST svg xmlns:xlink CDATA #FIXED "http://www.w3.org/1999/xlink">
]>
<!-- Generated by Graphviz version 2.20.2 (Wed Sep 16 11:12:21 UTC 2009)
     For user: (joel) Joel Silva Uchoa,,, -->
<!-- Title: G Pages: 1 -->
<svg width="533pt" height="476pt"
 viewBox="0.00 0.00 533.00 476.00" xmlns="http://www.w3.org/2000/svg" xmlns:xlink="http://www.w3.org/1999/xlink">
<g id="graph0" class="graph" transform="scale(1 1) rotate(0) translate(4 472)">
<title>G</title>
<polygon style="fill:white;stroke:white;" points="-4,4 -4,-472 529,-472 529,4 -4,4"/>
<!-- 1 -->
<g id="node1" class="node"><title>1</title>
<ellipse style="fill:lightgrey;stroke:black;" cx="267" cy="-450" rx="18" ry="18"/>
<text text-anchor="middle" x="267" y="-446.2" style="font-family:monospaced;font-size:12.00;">1</text>
</g>
<!-- 2 -->
<g id="node2" class="node"><title>2</title>
<ellipse style="fill:lightgrey;stroke:black;" cx="108" cy="-364" rx="18" ry="18"/>
<text text-anchor="middle" x="108" y="-360.2" style="font-family:monospaced;font-size:12.00;">2</text>
</g>
<!-- 1&#45;&gt;2 -->
<g id="edge2" class="edge"><title>1&#45;&gt;2</title>
<path style="fill:none;stroke:black;" d="M251,-441C221,-425 161,-392 129,-375"/>
<polygon style="fill:black;stroke:black;" points="129.292,-373.232 124,-373 127.992,-376.482 129.292,-373.232"/>
<text text-anchor="middle" x="220" y="-403.2" style="font-family:Times New Roman;font-size:12.00;">(1,.7) &#160;</text>
</g>
<!-- 3 -->
<g id="node3" class="node"><title>3</title>
<ellipse style="fill:lightgrey;stroke:black;" cx="267" cy="-364" rx="18" ry="18"/>
<text text-anchor="middle" x="267" y="-360.2" style="font-family:monospaced;font-size:12.00;">3</text>
</g>
<!-- 1&#45;&gt;3 -->
<g id="edge4" class="edge"><title>1&#45;&gt;3</title>
<path style="fill:none;stroke:black;" d="M267,-432C267,-419 267,-401 267,-387"/>
<polygon style="fill:black;stroke:black;" points="268.75,-387 267,-382 265.25,-387 268.75,-387"/>
<text text-anchor="middle" x="286" y="-403.2" style="font-family:Times New Roman;font-size:12.00;">(4,.2) &#160;</text>
</g>
<!-- 4 -->
<g id="node4" class="node"><title>4</title>
<ellipse style="fill:lightgrey;stroke:black;" cx="388" cy="-278" rx="18" ry="18"/>
<text text-anchor="middle" x="388" y="-274.2" style="font-family:monospaced;font-size:12.00;">4</text>
</g>
<!-- 1&#45;&gt;4 -->
<g id="edge6" class="edge"><title>1&#45;&gt;4</title>
<path style="fill:none;stroke:black;" d="M282,-439C290,-433 301,-424 310,-414 340,-377 365,-327 379,-300"/>
<polygon style="fill:black;stroke:black;" points="380.768,-300.292 381,-295 377.518,-298.992 380.768,-300.292"/>
<text text-anchor="middle" x="371" y="-360.2" style="font-family:Times New Roman;font-size:12.00;">(7,.1) &#160;</text>
</g>
<!-- 8 -->
<g id="node8" class="node"><title>8</title>
<ellipse style="fill:lightgrey;stroke:black;" cx="35" cy="-192" rx="18" ry="18"/>
<text text-anchor="middle" x="35" y="-188.2" style="font-family:monospaced;font-size:12.00;">8</text>
</g>
<!-- 1&#45;&gt;8 -->
<g id="edge8" class="edge"><title>1&#45;&gt;8</title>
<path style="fill:none;stroke:black;" d="M249,-449C198,-443 55,-420 9,-328 -10,-289 10,-240 24,-213"/>
<polygon style="fill:black;stroke:black;" points="25.7678,-213.292 26,-208 22.5182,-211.992 25.7678,-213.292"/>
<text text-anchor="middle" x="32" y="-317.2" style="font-family:Times New Roman;font-size:12.00;">(9,.45) &#160;</text>
</g>
<!-- 9 -->
<g id="node9" class="node"><title>9</title>
<ellipse style="fill:lightgrey;stroke:black;" cx="481" cy="-192" rx="18" ry="18"/>
<text text-anchor="middle" x="481" y="-188.2" style="font-family:monospaced;font-size:12.00;">9</text>
</g>
<!-- 1&#45;&gt;9 -->
<g id="edge10" class="edge"><title>1&#45;&gt;9</title>
<path style="fill:none;stroke:black;" d="M284,-443C334,-423 480,-355 525,-242 530,-226 515,-212 501,-203"/>
<polygon style="fill:black;stroke:black;" points="502.05,-201.6 497,-200 499.95,-204.4 502.05,-201.6"/>
<text text-anchor="middle" x="496" y="-317.2" style="font-family:Times New Roman;font-size:12.00;">(3,.7) &#160;</text>
</g>
<!-- 5 -->
<g id="node5" class="node"><title>5</title>
<ellipse style="fill:lightgrey;stroke:black;" cx="127" cy="-278" rx="18" ry="18"/>
<text text-anchor="middle" x="127" y="-274.2" style="font-family:monospaced;font-size:12.00;">5</text>
</g>
<!-- 2&#45;&gt;5 -->
<g id="edge12" class="edge"><title>2&#45;&gt;5</title>
<path style="fill:none;stroke:black;" d="M93,-353C82,-343 70,-328 77,-314 83,-302 95,-293 105,-287"/>
<polygon style="fill:black;stroke:black;" points="106.008,-288.482 110,-285 104.708,-285.232 106.008,-288.482"/>
<text text-anchor="middle" x="96" y="-317.2" style="font-family:Times New Roman;font-size:12.00;">(2,.5) &#160;</text>
</g>
<!-- 6 -->
<g id="node6" class="node"><title>6</title>
<ellipse style="fill:lightgrey;stroke:black;" cx="226" cy="-192" rx="18" ry="18"/>
<text text-anchor="middle" x="226" y="-188.2" style="font-family:monospaced;font-size:12.00;">6</text>
</g>
<!-- 2&#45;&gt;6 -->
<g id="edge14" class="edge"><title>2&#45;&gt;6</title>
<path style="fill:none;stroke:black;" d="M126,-359C141,-354 164,-344 178,-328 198,-303 187,-289 198,-260 203,-244 210,-227 216,-214"/>
<polygon style="fill:black;stroke:black;" points="217.768,-214.292 218,-209 214.518,-212.992 217.768,-214.292"/>
<text text-anchor="middle" x="217" y="-274.2" style="font-family:Times New Roman;font-size:12.00;">(2,.5) &#160;</text>
</g>
<!-- 2&#45;&gt;8 -->
<g id="edge16" class="edge"><title>2&#45;&gt;8</title>
<path style="fill:none;stroke:black;" d="M94,-353C86,-346 76,-337 69,-328 44,-294 37,-244 35,-215"/>
<polygon style="fill:black;stroke:black;" points="36.7501,-215 35,-210 33.2501,-215 36.7501,-215"/>
<text text-anchor="middle" x="73" y="-274.2" style="font-family:Times New Roman;font-size:12.00;">(4,.06) &#160;</text>
</g>
<!-- 3&#45;&gt;5 -->
<g id="edge18" class="edge"><title>3&#45;&gt;5</title>
<path style="fill:none;stroke:black;" d="M251,-354C225,-339 175,-307 147,-291"/>
<polygon style="fill:black;stroke:black;" points="148.05,-289.6 143,-288 145.95,-292.4 148.05,-289.6"/>
<text text-anchor="middle" x="227" y="-317.2" style="font-family:Times New Roman;font-size:12.00;">(3,.2) &#160;</text>
</g>
<!-- 3&#45;&gt;6 -->
<g id="edge20" class="edge"><title>3&#45;&gt;6</title>
<path style="fill:none;stroke:black;" d="M263,-346C255,-315 240,-249 231,-215"/>
<polygon style="fill:black;stroke:black;" points="232.697,-214.56 230,-210 229.265,-215.246 232.697,-214.56"/>
<text text-anchor="middle" x="269" y="-274.2" style="font-family:Times New Roman;font-size:12.00;">(7,.3) &#160;</text>
</g>
<!-- 7 -->
<g id="node7" class="node"><title>7</title>
<ellipse style="fill:lightgrey;stroke:black;" cx="334" cy="-106" rx="18" ry="18"/>
<text text-anchor="middle" x="334" y="-102.2" style="font-family:monospaced;font-size:12.00;">7</text>
</g>
<!-- 3&#45;&gt;7 -->
<g id="edge22" class="edge"><title>3&#45;&gt;7</title>
<path style="fill:none;stroke:black;" d="M273,-347C279,-333 286,-313 293,-296 301,-272 305,-266 312,-242 321,-203 328,-156 331,-129"/>
<polygon style="fill:black;stroke:black;" points="332.735,-129.246 332,-124 329.303,-128.56 332.735,-129.246"/>
<text text-anchor="middle" x="331" y="-231.2" style="font-family:Times New Roman;font-size:12.00;">(5,.3) &#160;</text>
</g>
<!-- 4&#45;&gt;6 -->
<g id="edge24" class="edge"><title>4&#45;&gt;6</title>
<path style="fill:none;stroke:black;" d="M370,-275C346,-271 304,-261 273,-242 260,-233 248,-221 240,-211"/>
<polygon style="fill:black;stroke:black;" points="241.4,-209.95 237,-207 238.6,-212.05 241.4,-209.95"/>
<text text-anchor="middle" x="292" y="-231.2" style="font-family:Times New Roman;font-size:12.00;">(3,.8) &#160;</text>
</g>
<!-- 4&#45;&gt;7 -->
<g id="edge26" class="edge"><title>4&#45;&gt;7</title>
<path style="fill:none;stroke:black;" d="M383,-261C376,-234 362,-184 348,-142 347,-137 345,-132 343,-128"/>
<polygon style="fill:black;stroke:black;" points="344.482,-126.992 341,-123 341.232,-128.292 344.482,-126.992"/>
<text text-anchor="middle" x="391" y="-188.2" style="font-family:Times New Roman;font-size:12.00;">(7,.15) &#160;</text>
</g>
<!-- 4&#45;&gt;9 -->
<g id="edge28" class="edge"><title>4&#45;&gt;9</title>
<path style="fill:none;stroke:black;" d="M396,-262C402,-251 411,-238 422,-228 433,-217 448,-208 460,-202"/>
<polygon style="fill:black;stroke:black;" points="461.05,-203.4 464,-199 458.95,-200.6 461.05,-203.4"/>
<text text-anchor="middle" x="445" y="-231.2" style="font-family:Times New Roman;font-size:12.00;">(1,.05) &#160;</text>
</g>
<!-- 5&#45;&gt;6 -->
<g id="edge30" class="edge"><title>5&#45;&gt;6</title>
<path style="fill:none;stroke:black;" d="M135,-262C141,-251 150,-238 161,-228 173,-216 191,-206 204,-200"/>
<polygon style="fill:black;stroke:black;" points="205.008,-201.482 209,-198 203.708,-198.232 205.008,-201.482"/>
<text text-anchor="middle" x="180" y="-231.2" style="font-family:Times New Roman;font-size:12.00;">(2,.7) &#160;</text>
</g>
<!-- 5&#45;&gt;8 -->
<g id="edge32" class="edge"><title>5&#45;&gt;8</title>
<path style="fill:none;stroke:black;" d="M110,-271C97,-265 79,-255 66,-242 57,-233 50,-223 45,-213"/>
<polygon style="fill:black;stroke:black;" points="46.4818,-211.992 43,-208 43.2322,-213.292 46.4818,-211.992"/>
<text text-anchor="middle" x="89" y="-231.2" style="font-family:Times New Roman;font-size:12.00;">(1,.15) &#160;</text>
</g>
<!-- 10 -->
<g id="node10" class="node"><title>10</title>
<ellipse style="fill:lightgrey;stroke:black;" cx="165" cy="-19" rx="19.0799" ry="19.0799"/>
<text text-anchor="middle" x="165" y="-15.2" style="font-family:monospaced;font-size:12.00;">10</text>
</g>
<!-- 5&#45;&gt;10 -->
<g id="edge34" class="edge"><title>5&#45;&gt;10</title>
<path style="fill:none;stroke:black;" d="M130,-260C136,-215 154,-94 161,-43"/>
<polygon style="fill:black;stroke:black;" points="162.735,-43.2461 162,-38 159.303,-42.5597 162.735,-43.2461"/>
<text text-anchor="middle" x="164" y="-145.2" style="font-family:Times New Roman;font-size:12.00;">(2,.8) &#160;</text>
</g>
<!-- 6&#45;&gt;7 -->
<g id="edge36" class="edge"><title>6&#45;&gt;7</title>
<path style="fill:none;stroke:black;" d="M239,-179C250,-168 266,-154 281,-142 292,-133 304,-125 315,-118"/>
<polygon style="fill:black;stroke:black;" points="316.05,-119.4 319,-115 313.95,-116.6 316.05,-119.4"/>
<text text-anchor="middle" x="300" y="-145.2" style="font-family:Times New Roman;font-size:12.00;">(2,.2) &#160;</text>
</g>
<!-- 6&#45;&gt;10 -->
<g id="edge38" class="edge"><title>6&#45;&gt;10</title>
<path style="fill:none;stroke:black;" d="M220,-175C209,-144 185,-78 173,-42"/>
<polygon style="fill:black;stroke:black;" points="174.482,-40.9924 171,-37 171.232,-42.2923 174.482,-40.9924"/>
<text text-anchor="middle" x="221" y="-102.2" style="font-family:Times New Roman;font-size:12.00;">(3,.4) &#160;</text>
</g>
<!-- 7&#45;&gt;10 -->
<g id="edge40" class="edge"><title>7&#45;&gt;10</title>
<path style="fill:none;stroke:black;" d="M318,-98C286,-82 221,-48 186,-30"/>
<polygon style="fill:black;stroke:black;" points="187.255,-28.6709 182,-28 185.69,-31.8014 187.255,-28.6709"/>
<text text-anchor="middle" x="283" y="-59.2" style="font-family:Times New Roman;font-size:12.00;">(6,.1) &#160;</text>
</g>
<!-- 8&#45;&gt;10 -->
<g id="edge42" class="edge"><title>8&#45;&gt;10</title>
<path style="fill:none;stroke:black;" d="M35,-174C36,-151 40,-113 59,-88 80,-58 118,-38 142,-28"/>
<polygon style="fill:black;stroke:black;" points="143.008,-29.4818 147,-26 141.708,-26.2322 143.008,-29.4818"/>
<text text-anchor="middle" x="86" y="-102.2" style="font-family:Times New Roman;font-size:12.00;">(12,.05) &#160;</text>
</g>
<!-- 9&#45;&gt;4 -->
<g id="edge44" class="edge"><title>9&#45;&gt;4</title>
<path style="fill:none;stroke:black;" d="M480,-210C479,-221 476,-233 469,-242 453,-259 429,-268 411,-274"/>
<polygon style="fill:black;stroke:black;" points="410.56,-272.303 406,-275 411.246,-275.735 410.56,-272.303"/>
<text text-anchor="middle" x="497" y="-231.2" style="font-family:Times New Roman;font-size:12.00;">(1,.05) &#160;</text>
</g>
<!-- 9&#45;&gt;7 -->
<g id="edge46" class="edge"><title>9&#45;&gt;7</title>
<path style="fill:none;stroke:black;" d="M466,-182C450,-171 424,-155 402,-142 386,-132 368,-123 355,-116"/>
<polygon style="fill:black;stroke:black;" points="355.292,-114.232 350,-114 353.992,-117.482 355.292,-114.232"/>
<text text-anchor="middle" x="445" y="-145.2" style="font-family:Times New Roman;font-size:12.00;">(2,.8) &#160;</text>
</g>
</g>
</svg>
