<?xml version="1.0"?>
<!DOCTYPE svg PUBLIC "-//W3C//DTD SVG 1.0//EN" "http://www.w3.org/TR/2001/REC-SVG-20010904/DTD/svg10.dtd">
<!-- Generated by Graphviz version 2.20.2 (Wed Sep 16 11:12:21 UTC 2009)
     For user: (joel) Joel Silva Uchoa,,, -->
<!-- Title: G Pages: 1 -->
<svg xmlns="http://www.w3.org/2000/svg" xmlns:svg="http://www.w3.org/2000/svg" width="533pt" height="476pt" viewBox="0.00 0.00 533.00 476.00" preserveAspectRatio="xMidYMid meet" zoomAndPan="magnify" version="1.0" contentScriptType="text/ecmascript" contentStyleType="text/css"><defs><linearGradient id="white" x1="0%" y1="0%" x2="0%" y2="0%"><stop offset="0%" style="stop-color:rgb(255,255,255);stop-opacity:1"/></linearGradient><linearGradient id="aquamarine" x1="0%" y1="0%" x2="100%" y2="100%"><stop offset="0%" style="stop-color:rgb(255,255,255);stop-opacity:1"/><stop offset="100%" style="stop-color:rgb(127,255,212);stop-opacity:1"/></linearGradient><linearGradient id="azure" x1="0%" y1="0%" x2="100%" y2="100%"><stop offset="0%" style="stop-color:rgb(255,255,255);stop-opacity:1"/><stop offset="100%" style="stop-color:rgb(240,255,255);stop-opacity:1"/></linearGradient><linearGradient id="blue" x1="0%" y1="0%" x2="100%" y2="100%"><stop offset="0%" style="stop-color:rgb(255,255,255);stop-opacity:1"/><stop offset="100%" style="stop-color:rgb(0,0,255);stop-opacity:1"/></linearGradient><linearGradient id="blueviolet" x1="0%" y1="0%" x2="100%" y2="100%"><stop offset="0%" style="stop-color:rgb(255,255,255);stop-opacity:1"/><stop offset="100%" style="stop-color:rgb(138,43,226);stop-opacity:1"/></linearGradient><linearGradient id="brown" x1="0%" y1="0%" x2="100%" y2="100%"><stop offset="0%" style="stop-color:rgb(255,255,255);stop-opacity:1"/><stop offset="100%" style="stop-color:rgb(165,42,42);stop-opacity:1"/></linearGradient><linearGradient id="cadetblue" x1="0%" y1="0%" x2="100%" y2="100%"><stop offset="0%" style="stop-color:rgb(255,255,255);stop-opacity:1"/><stop offset="100%" style="stop-color:rgb(95,158,160);stop-opacity:1"/></linearGradient><linearGradient id="chocolate" x1="0%" y1="0%" x2="100%" y2="100%"><stop offset="0%" style="stop-color:rgb(255,255,255);stop-opacity:1"/><stop offset="100%" style="stop-color:rgb(210,105,30);stop-opacity:1"/></linearGradient><linearGradient id="cornflowerblue" x1="0%" y1="0%" x2="100%" y2="100%"><stop offset="0%" style="stop-color:rgb(255,255,255);stop-opacity:1"/><stop offset="100%" style="stop-color:rgb(100,149,237);stop-opacity:1"/></linearGradient><linearGradient id="crimson" x1="0%" y1="0%" x2="100%" y2="100%"><stop offset="0%" style="stop-color:rgb(255,255,255);stop-opacity:1"/><stop offset="100%" style="stop-color:rgb(220,20,60);stop-opacity:1"/></linearGradient><linearGradient id="cyan" x1="0%" y1="0%" x2="100%" y2="100%"><stop offset="0%" style="stop-color:rgb(255,255,255);stop-opacity:1"/><stop offset="100%" style="stop-color:rgb(0,255,255);stop-opacity:1"/></linearGradient><linearGradient id="darkgreen" x1="0%" y1="0%" x2="100%" y2="100%"><stop offset="0%" style="stop-color:rgb(255,255,255);stop-opacity:1"/><stop offset="100%" style="stop-color:rgb(0,100,0);stop-opacity:1"/></linearGradient><linearGradient id="darkorange" x1="0%" y1="0%" x2="100%" y2="100%"><stop offset="0%" style="stop-color:rgb(255,255,255);stop-opacity:1"/><stop offset="100%" style="stop-color:rgb(255,140,0);stop-opacity:1"/></linearGradient><linearGradient id="gold" x1="0%" y1="0%" x2="100%" y2="100%"><stop offset="0%" style="stop-color:rgb(255,255,255);stop-opacity:1"/><stop offset="100%" style="stop-color:rgb(255,215,0);stop-opacity:1"/></linearGradient><linearGradient id="gray" x1="0%" y1="0%" x2="100%" y2="100%"><stop offset="0%" style="stop-color:rgb(255,255,255);stop-opacity:1"/><stop offset="100%" style="stop-color:rgb(192,192,192);stop-opacity:1"/></linearGradient><linearGradient id="greenyellow" x1="0%" y1="0%" x2="100%" y2="100%"><stop offset="0%" style="stop-color:rgb(255,255,255);stop-opacity:1"/><stop offset="100%" style="stop-color:rgb(173,255,47);stop-opacity:1"/></linearGradient><linearGradient id="green" x1="0%" y1="0%" x2="100%" y2="100%"><stop offset="0%" style="stop-color:rgb(255,255,255);stop-opacity:1"/><stop offset="100%" style="stop-color:rgb(0,255,0);stop-opacity:1"/></linearGradient><linearGradient id="grey" x1="0%" y1="0%" x2="100%" y2="100%"><stop offset="0%" style="stop-color:rgb(255,255,255);stop-opacity:1"/><stop offset="100%" style="stop-color:rgb(192,192,192);stop-opacity:1"/></linearGradient><linearGradient id="hotpink" x1="0%" y1="0%" x2="100%" y2="100%"><stop offset="0%" style="stop-color:rgb(255,255,255);stop-opacity:1"/><stop offset="100%" style="stop-color:rgb(255,105,180);stop-opacity:1"/></linearGradient><linearGradient id="indianred" x1="0%" y1="0%" x2="100%" y2="100%"><stop offset="0%" style="stop-color:rgb(255,255,255);stop-opacity:1"/><stop offset="100%" style="stop-color:rgb(205,92,92);stop-opacity:1"/></linearGradient><linearGradient id="indigo" x1="0%" y1="0%" x2="100%" y2="100%"><stop offset="0%" style="stop-color:rgb(255,255,255);stop-opacity:1"/><stop offset="100%" style="stop-color:rgb(75,0,130);stop-opacity:1"/></linearGradient><linearGradient id="lavender" x1="0%" y1="0%" x2="100%" y2="100%"><stop offset="0%" style="stop-color:rgb(255,255,255);stop-opacity:1"/><stop offset="100%" style="stop-color:rgb(230,230,250);stop-opacity:1"/></linearGradient><linearGradient id="lightblue" x1="0%" y1="0%" x2="100%" y2="100%"><stop offset="0%" style="stop-color:rgb(255,255,255);stop-opacity:1"/><stop offset="100%" style="stop-color:rgb(173,216,230);stop-opacity:1"/></linearGradient><linearGradient id="lightgray" x1="0%" y1="0%" x2="100%" y2="100%"><stop offset="0%" style="stop-color:rgb(255,255,255);stop-opacity:1"/><stop offset="100%" style="stop-color:rgb(211,211,211);stop-opacity:1"/></linearGradient><linearGradient id="lightgrey" x1="0%" y1="0%" x2="100%" y2="100%"><stop offset="0%" style="stop-color:rgb(255,255,255);stop-opacity:1"/><stop offset="100%" style="stop-color:rgb(211,211,211);stop-opacity:1"/></linearGradient><linearGradient id="magenta" x1="0%" y1="0%" x2="100%" y2="100%"><stop offset="0%" style="stop-color:rgb(255,255,255);stop-opacity:1"/><stop offset="100%" style="stop-color:rgb(255,0,255);stop-opacity:1"/></linearGradient><linearGradient id="maroon" x1="0%" y1="0%" x2="100%" y2="100%"><stop offset="0%" style="stop-color:rgb(255,255,255);stop-opacity:1"/><stop offset="100%" style="stop-color:rgb(176,48,96);stop-opacity:1"/></linearGradient><linearGradient id="mediumblue" x1="0%" y1="0%" x2="100%" y2="100%"><stop offset="0%" style="stop-color:rgb(255,255,255);stop-opacity:1"/><stop offset="100%" style="stop-color:rgb(0,0,205);stop-opacity:1"/></linearGradient><linearGradient id="mediumpurple" x1="0%" y1="0%" x2="100%" y2="100%"><stop offset="0%" style="stop-color:rgb(255,255,255);stop-opacity:1"/><stop offset="100%" style="stop-color:rgb(147,112,219);stop-opacity:1"/></linearGradient><linearGradient id="orange" x1="0%" y1="0%" x2="100%" y2="100%"><stop offset="0%" style="stop-color:rgb(255,255,255);stop-opacity:1"/><stop offset="100%" style="stop-color:rgb(255,165,0);stop-opacity:1"/></linearGradient><linearGradient id="pink" x1="0%" y1="0%" x2="100%" y2="100%"><stop offset="0%" style="stop-color:rgb(255,255,255);stop-opacity:1"/><stop offset="100%" style="stop-color:rgb(255,192,203);stop-opacity:1"/></linearGradient><linearGradient id="purple" x1="0%" y1="0%" x2="100%" y2="100%"><stop offset="0%" style="stop-color:rgb(255,255,255);stop-opacity:1"/><stop offset="100%" style="stop-color:rgb(160,32,240);stop-opacity:1"/></linearGradient><linearGradient id="red" x1="0%" y1="0%" x2="100%" y2="100%"><stop offset="0%" style="stop-color:rgb(255,255,255);stop-opacity:1"/><stop offset="100%" style="stop-color:rgb(255,0,0);stop-opacity:1"/></linearGradient><linearGradient id="steelblue" x1="0%" y1="0%" x2="100%" y2="100%"><stop offset="0%" style="stop-color:rgb(255,255,255);stop-opacity:1"/><stop offset="100%" style="stop-color:rgb(70,130,180);stop-opacity:1"/></linearGradient><linearGradient id="violet" x1="0%" y1="0%" x2="100%" y2="100%"><stop offset="0%" style="stop-color:rgb(255,255,255);stop-opacity:1"/><stop offset="100%" style="stop-color:rgb(238,130,238);stop-opacity:1"/></linearGradient><linearGradient id="yellow" x1="0%" y1="0%" x2="100%" y2="100%"><stop offset="0%" style="stop-color:rgb(255,255,255);stop-opacity:1"/><stop offset="100%" style="stop-color:rgb(255,255,0);stop-opacity:1"/></linearGradient><linearGradient id="none" x1="0%" y1="0%" x2="100%" y2="100%"><stop offset="0%" style="stop-color:rgb(255,255,255);stop-opacity:1"/><stop offset="100%" style="stop-color:rgb(255,255,255);stop-opacity:1"/></linearGradient></defs>
<g id="graph0" class="graph" transform="scale(1 1) rotate(0) translate(4 472)"><polygon style="fill:white;stroke:white;" points="-4,4 -4,-472 529,-472 529,4 -4,4"/><title content="structured text">G</title><g id="node1" class="node"><ellipse style="fill: black; stroke: none; fill-opacity:0.3" cx="267" cy="-450" rx="18" ry="18" transform="translate(3,3)"/><ellipse style="fill:url(#lightgrey);stroke:black;;" cx="267" cy="-450" rx="18" ry="18"/><text text-anchor="middle" x="267" y="-446.2" style="font-size:10px; font-family:Verdana">1</text></g><g id="node2" class="node"><ellipse style="fill: black; stroke: none; fill-opacity:0.3" cx="108" cy="-364" rx="18" ry="18" transform="translate(3,3)"/><ellipse style="fill:url(#lightgrey);stroke:black;;" cx="108" cy="-364" rx="18" ry="18"/><text text-anchor="middle" x="108" y="-360.2" style="font-size:10px; font-family:Verdana">2</text></g><g id="edge2" class="edge"><polygon style="fill: black; stroke: none; fill-opacity:0.3" points="129.292,-373.232 124,-373 127.992,-376.482 129.292,-373.232" transform="translate(3,3)"/><path style="fill: none; stroke: black; stroke-opacity:0.3" d="M251,-441C221,-425 161,-392 129,-375" transform="translate(3,3)"/><polygon style="fill:url(#black);stroke:black;;" points="129.292,-373.232 124,-373 127.992,-376.482 129.292,-373.232"/><path style="fill:none;stroke:black;" d="M251,-441C221,-425 161,-392 129,-375"/><text text-anchor="middle" x="220" y="-403.2" style="font-size:10px; font-family:Verdana">(1,.7)  </text></g><g id="node3" class="node"><ellipse style="fill: black; stroke: none; fill-opacity:0.3" cx="267" cy="-364" rx="18" ry="18" transform="translate(3,3)"/><ellipse style="fill:url(#lightgrey);stroke:black;;" cx="267" cy="-364" rx="18" ry="18"/><text text-anchor="middle" x="267" y="-360.2" style="font-size:10px; font-family:Verdana">3</text></g><g id="edge4" class="edge"><polygon style="fill: black; stroke: none; fill-opacity:0.3" points="268.75,-387 267,-382 265.25,-387 268.75,-387" transform="translate(3,3)"/><path style="fill: none; stroke: black; stroke-opacity:0.3" d="M267,-432C267,-419 267,-401 267,-387" transform="translate(3,3)"/><polygon style="fill:url(#black);stroke:black;;" points="268.75,-387 267,-382 265.25,-387 268.75,-387"/><path style="fill:none;stroke:black;" d="M267,-432C267,-419 267,-401 267,-387"/><text text-anchor="middle" x="286" y="-403.2" style="font-size:10px; font-family:Verdana">(4,.2)  </text></g><g id="node4" class="node"><ellipse style="fill: black; stroke: none; fill-opacity:0.3" cx="388" cy="-278" rx="18" ry="18" transform="translate(3,3)"/><ellipse style="fill:url(#lightgrey);stroke:black;;" cx="388" cy="-278" rx="18" ry="18"/><text text-anchor="middle" x="388" y="-274.2" style="font-size:10px; font-family:Verdana">4</text></g><g id="edge6" class="edge"><polygon style="fill: black; stroke: none; fill-opacity:0.3" points="380.768,-300.292 381,-295 377.518,-298.992 380.768,-300.292" transform="translate(3,3)"/><path style="fill: none; stroke: black; stroke-opacity:0.3" d="M282,-439C290,-433 301,-424 310,-414 340,-377 365,-327 379,-300" transform="translate(3,3)"/><polygon style="fill:url(#black);stroke:black;;" points="380.768,-300.292 381,-295 377.518,-298.992 380.768,-300.292"/><path style="fill:none;stroke:black;" d="M282,-439C290,-433 301,-424 310,-414 340,-377 365,-327 379,-300"/><text text-anchor="middle" x="371" y="-360.2" style="font-size:10px; font-family:Verdana">(7,.1)  </text></g><g id="node8" class="node"><ellipse style="fill: black; stroke: none; fill-opacity:0.3" cx="35" cy="-192" rx="18" ry="18" transform="translate(3,3)"/><ellipse style="fill:url(#lightgrey);stroke:black;;" cx="35" cy="-192" rx="18" ry="18"/><text text-anchor="middle" x="35" y="-188.2" style="font-size:10px; font-family:Verdana">8</text></g><g id="edge8" class="edge"><polygon style="fill: black; stroke: none; fill-opacity:0.3" points="25.7678,-213.292 26,-208 22.5182,-211.992 25.7678,-213.292" transform="translate(3,3)"/><path style="fill: none; stroke: black; stroke-opacity:0.3" d="M249,-449C198,-443 55,-420 9,-328 -10,-289 10,-240 24,-213" transform="translate(3,3)"/><polygon style="fill:url(#black);stroke:black;;" points="25.7678,-213.292 26,-208 22.5182,-211.992 25.7678,-213.292"/><path style="fill:none;stroke:black;" d="M249,-449C198,-443 55,-420 9,-328 -10,-289 10,-240 24,-213"/><text text-anchor="middle" x="32" y="-317.2" style="font-size:10px; font-family:Verdana">(9,.45)  </text></g><g id="node9" class="node"><ellipse style="fill: black; stroke: none; fill-opacity:0.3" cx="481" cy="-192" rx="18" ry="18" transform="translate(3,3)"/><ellipse style="fill:url(#lightgrey);stroke:black;;" cx="481" cy="-192" rx="18" ry="18"/><text text-anchor="middle" x="481" y="-188.2" style="font-size:10px; font-family:Verdana">9</text></g><g id="edge10" class="edge"><polygon style="fill: black; stroke: none; fill-opacity:0.3" points="502.05,-201.6 497,-200 499.95,-204.4 502.05,-201.6" transform="translate(3,3)"/><path style="fill: none; stroke: black; stroke-opacity:0.3" d="M284,-443C334,-423 480,-355 525,-242 530,-226 515,-212 501,-203" transform="translate(3,3)"/><polygon style="fill:url(#black);stroke:black;;" points="502.05,-201.6 497,-200 499.95,-204.4 502.05,-201.6"/><path style="fill:none;stroke:black;" d="M284,-443C334,-423 480,-355 525,-242 530,-226 515,-212 501,-203"/><text text-anchor="middle" x="496" y="-317.2" style="font-size:10px; font-family:Verdana">(3,.7)  </text></g><g id="node5" class="node"><ellipse style="fill: black; stroke: none; fill-opacity:0.3" cx="127" cy="-278" rx="18" ry="18" transform="translate(3,3)"/><ellipse style="fill:url(#lightgrey);stroke:black;;" cx="127" cy="-278" rx="18" ry="18"/><text text-anchor="middle" x="127" y="-274.2" style="font-size:10px; font-family:Verdana">5</text></g><g id="edge12" class="edge"><polygon style="fill: black; stroke: none; fill-opacity:0.3" points="106.008,-288.482 110,-285 104.708,-285.232 106.008,-288.482" transform="translate(3,3)"/><path style="fill: none; stroke: black; stroke-opacity:0.3" d="M93,-353C82,-343 70,-328 77,-314 83,-302 95,-293 105,-287" transform="translate(3,3)"/><polygon style="fill:url(#black);stroke:black;;" points="106.008,-288.482 110,-285 104.708,-285.232 106.008,-288.482"/><path style="fill:none;stroke:black;" d="M93,-353C82,-343 70,-328 77,-314 83,-302 95,-293 105,-287"/><text text-anchor="middle" x="96" y="-317.2" style="font-size:10px; font-family:Verdana">(2,.5)  </text></g><g id="node6" class="node"><ellipse style="fill: black; stroke: none; fill-opacity:0.3" cx="226" cy="-192" rx="18" ry="18" transform="translate(3,3)"/><ellipse style="fill:url(#lightgrey);stroke:black;;" cx="226" cy="-192" rx="18" ry="18"/><text text-anchor="middle" x="226" y="-188.2" style="font-size:10px; font-family:Verdana">6</text></g><g id="edge14" class="edge"><polygon style="fill: black; stroke: none; fill-opacity:0.3" points="217.768,-214.292 218,-209 214.518,-212.992 217.768,-214.292" transform="translate(3,3)"/><path style="fill: none; stroke: black; stroke-opacity:0.3" d="M126,-359C141,-354 164,-344 178,-328 198,-303 187,-289 198,-260 203,-244 210,-227 216,-214" transform="translate(3,3)"/><polygon style="fill:url(#black);stroke:black;;" points="217.768,-214.292 218,-209 214.518,-212.992 217.768,-214.292"/><path style="fill:none;stroke:black;" d="M126,-359C141,-354 164,-344 178,-328 198,-303 187,-289 198,-260 203,-244 210,-227 216,-214"/><text text-anchor="middle" x="217" y="-274.2" style="font-size:10px; font-family:Verdana">(2,.5)  </text></g><g id="edge16" class="edge"><polygon style="fill: black; stroke: none; fill-opacity:0.3" points="36.7501,-215 35,-210 33.2501,-215 36.7501,-215" transform="translate(3,3)"/><path style="fill: none; stroke: black; stroke-opacity:0.3" d="M94,-353C86,-346 76,-337 69,-328 44,-294 37,-244 35,-215" transform="translate(3,3)"/><polygon style="fill:url(#black);stroke:black;;" points="36.7501,-215 35,-210 33.2501,-215 36.7501,-215"/><path style="fill:none;stroke:black;" d="M94,-353C86,-346 76,-337 69,-328 44,-294 37,-244 35,-215"/><text text-anchor="middle" x="73" y="-274.2" style="font-size:10px; font-family:Verdana">(4,.06)  </text></g><g id="edge18" class="edge"><polygon style="fill: black; stroke: none; fill-opacity:0.3" points="148.05,-289.6 143,-288 145.95,-292.4 148.05,-289.6" transform="translate(3,3)"/><path style="fill: none; stroke: black; stroke-opacity:0.3" d="M251,-354C225,-339 175,-307 147,-291" transform="translate(3,3)"/><polygon style="fill:url(#black);stroke:black;;" points="148.05,-289.6 143,-288 145.95,-292.4 148.05,-289.6"/><path style="fill:none;stroke:black;" d="M251,-354C225,-339 175,-307 147,-291"/><text text-anchor="middle" x="227" y="-317.2" style="font-size:10px; font-family:Verdana">(3,.2)  </text></g><g id="edge20" class="edge"><polygon style="fill: black; stroke: none; fill-opacity:0.3" points="232.697,-214.56 230,-210 229.265,-215.246 232.697,-214.56" transform="translate(3,3)"/><path style="fill: none; stroke: black; stroke-opacity:0.3" d="M263,-346C255,-315 240,-249 231,-215" transform="translate(3,3)"/><polygon style="fill:url(#black);stroke:black;;" points="232.697,-214.56 230,-210 229.265,-215.246 232.697,-214.56"/><path style="fill:none;stroke:black;" d="M263,-346C255,-315 240,-249 231,-215"/><text text-anchor="middle" x="269" y="-274.2" style="font-size:10px; font-family:Verdana">(7,.3)  </text></g><g id="node7" class="node"><ellipse style="fill: black; stroke: none; fill-opacity:0.3" cx="334" cy="-106" rx="18" ry="18" transform="translate(3,3)"/><ellipse style="fill:url(#lightgrey);stroke:black;;" cx="334" cy="-106" rx="18" ry="18"/><text text-anchor="middle" x="334" y="-102.2" style="font-size:10px; font-family:Verdana">7</text></g><g id="edge22" class="edge"><polygon style="fill: black; stroke: none; fill-opacity:0.3" points="332.735,-129.246 332,-124 329.303,-128.56 332.735,-129.246" transform="translate(3,3)"/><path style="fill: none; stroke: black; stroke-opacity:0.3" d="M273,-347C279,-333 286,-313 293,-296 301,-272 305,-266 312,-242 321,-203 328,-156 331,-129" transform="translate(3,3)"/><polygon style="fill:url(#black);stroke:black;;" points="332.735,-129.246 332,-124 329.303,-128.56 332.735,-129.246"/><path style="fill:none;stroke:black;" d="M273,-347C279,-333 286,-313 293,-296 301,-272 305,-266 312,-242 321,-203 328,-156 331,-129"/><text text-anchor="middle" x="331" y="-231.2" style="font-size:10px; font-family:Verdana">(5,.3)  </text></g><g id="edge24" class="edge"><polygon style="fill: black; stroke: none; fill-opacity:0.3" points="241.4,-209.95 237,-207 238.6,-212.05 241.4,-209.95" transform="translate(3,3)"/><path style="fill: none; stroke: black; stroke-opacity:0.3" d="M370,-275C346,-271 304,-261 273,-242 260,-233 248,-221 240,-211" transform="translate(3,3)"/><polygon style="fill:url(#black);stroke:black;;" points="241.4,-209.95 237,-207 238.6,-212.05 241.4,-209.95"/><path style="fill:none;stroke:black;" d="M370,-275C346,-271 304,-261 273,-242 260,-233 248,-221 240,-211"/><text text-anchor="middle" x="292" y="-231.2" style="font-size:10px; font-family:Verdana">(3,.8)  </text></g><g id="edge26" class="edge"><polygon style="fill: black; stroke: none; fill-opacity:0.3" points="344.482,-126.992 341,-123 341.232,-128.292 344.482,-126.992" transform="translate(3,3)"/><path style="fill: none; stroke: black; stroke-opacity:0.3" d="M383,-261C376,-234 362,-184 348,-142 347,-137 345,-132 343,-128" transform="translate(3,3)"/><polygon style="fill:url(#black);stroke:black;;" points="344.482,-126.992 341,-123 341.232,-128.292 344.482,-126.992"/><path style="fill:none;stroke:black;" d="M383,-261C376,-234 362,-184 348,-142 347,-137 345,-132 343,-128"/><text text-anchor="middle" x="391" y="-188.2" style="font-size:10px; font-family:Verdana">(7,.15)  </text></g><g id="edge28" class="edge"><polygon style="fill: black; stroke: none; fill-opacity:0.3" points="461.05,-203.4 464,-199 458.95,-200.6 461.05,-203.4" transform="translate(3,3)"/><path style="fill: none; stroke: black; stroke-opacity:0.3" d="M396,-262C402,-251 411,-238 422,-228 433,-217 448,-208 460,-202" transform="translate(3,3)"/><polygon style="fill:url(#black);stroke:black;;" points="461.05,-203.4 464,-199 458.95,-200.6 461.05,-203.4"/><path style="fill:none;stroke:black;" d="M396,-262C402,-251 411,-238 422,-228 433,-217 448,-208 460,-202"/><text text-anchor="middle" x="445" y="-231.2" style="font-size:10px; font-family:Verdana">(1,.05)  </text></g><g id="edge30" class="edge"><polygon style="fill: black; stroke: none; fill-opacity:0.3" points="205.008,-201.482 209,-198 203.708,-198.232 205.008,-201.482" transform="translate(3,3)"/><path style="fill: none; stroke: black; stroke-opacity:0.3" d="M135,-262C141,-251 150,-238 161,-228 173,-216 191,-206 204,-200" transform="translate(3,3)"/><polygon style="fill:url(#black);stroke:black;;" points="205.008,-201.482 209,-198 203.708,-198.232 205.008,-201.482"/><path style="fill:none;stroke:black;" d="M135,-262C141,-251 150,-238 161,-228 173,-216 191,-206 204,-200"/><text text-anchor="middle" x="180" y="-231.2" style="font-size:10px; font-family:Verdana">(2,.7)  </text></g><g id="edge32" class="edge"><polygon style="fill: black; stroke: none; fill-opacity:0.3" points="46.4818,-211.992 43,-208 43.2322,-213.292 46.4818,-211.992" transform="translate(3,3)"/><path style="fill: none; stroke: black; stroke-opacity:0.3" d="M110,-271C97,-265 79,-255 66,-242 57,-233 50,-223 45,-213" transform="translate(3,3)"/><polygon style="fill:url(#black);stroke:black;;" points="46.4818,-211.992 43,-208 43.2322,-213.292 46.4818,-211.992"/><path style="fill:none;stroke:black;" d="M110,-271C97,-265 79,-255 66,-242 57,-233 50,-223 45,-213"/><text text-anchor="middle" x="89" y="-231.2" style="font-size:10px; font-family:Verdana">(1,.15)  </text></g><g id="node10" class="node"><ellipse style="fill: black; stroke: none; fill-opacity:0.3" cx="165" cy="-19" rx="19.0799" ry="19.0799" transform="translate(3,3)"/><ellipse style="fill:url(#lightgrey);stroke:black;;" cx="165" cy="-19" rx="19.0799" ry="19.0799"/><text text-anchor="middle" x="165" y="-15.2" style="font-size:10px; font-family:Verdana">10</text></g><g id="edge34" class="edge"><polygon style="fill: black; stroke: none; fill-opacity:0.3" points="162.735,-43.2461 162,-38 159.303,-42.5597 162.735,-43.2461" transform="translate(3,3)"/><path style="fill: none; stroke: black; stroke-opacity:0.3" d="M130,-260C136,-215 154,-94 161,-43" transform="translate(3,3)"/><polygon style="fill:url(#black);stroke:black;;" points="162.735,-43.2461 162,-38 159.303,-42.5597 162.735,-43.2461"/><path style="fill:none;stroke:black;" d="M130,-260C136,-215 154,-94 161,-43"/><text text-anchor="middle" x="164" y="-145.2" style="font-size:10px; font-family:Verdana">(2,.8)  </text></g><g id="edge36" class="edge"><polygon style="fill: black; stroke: none; fill-opacity:0.3" points="316.05,-119.4 319,-115 313.95,-116.6 316.05,-119.4" transform="translate(3,3)"/><path style="fill: none; stroke: black; stroke-opacity:0.3" d="M239,-179C250,-168 266,-154 281,-142 292,-133 304,-125 315,-118" transform="translate(3,3)"/><polygon style="fill:url(#black);stroke:black;;" points="316.05,-119.4 319,-115 313.95,-116.6 316.05,-119.4"/><path style="fill:none;stroke:black;" d="M239,-179C250,-168 266,-154 281,-142 292,-133 304,-125 315,-118"/><text text-anchor="middle" x="300" y="-145.2" style="font-size:10px; font-family:Verdana">(2,.2)  </text></g><g id="edge38" class="edge"><polygon style="fill: black; stroke: none; fill-opacity:0.3" points="174.482,-40.9924 171,-37 171.232,-42.2923 174.482,-40.9924" transform="translate(3,3)"/><path style="fill: none; stroke: black; stroke-opacity:0.3" d="M220,-175C209,-144 185,-78 173,-42" transform="translate(3,3)"/><polygon style="fill:url(#black);stroke:black;;" points="174.482,-40.9924 171,-37 171.232,-42.2923 174.482,-40.9924"/><path style="fill:none;stroke:black;" d="M220,-175C209,-144 185,-78 173,-42"/><text text-anchor="middle" x="221" y="-102.2" style="font-size:10px; font-family:Verdana">(3,.4)  </text></g><g id="edge40" class="edge"><polygon style="fill: black; stroke: none; fill-opacity:0.3" points="187.255,-28.6709 182,-28 185.69,-31.8014 187.255,-28.6709" transform="translate(3,3)"/><path style="fill: none; stroke: black; stroke-opacity:0.3" d="M318,-98C286,-82 221,-48 186,-30" transform="translate(3,3)"/><polygon style="fill:url(#black);stroke:black;;" points="187.255,-28.6709 182,-28 185.69,-31.8014 187.255,-28.6709"/><path style="fill:none;stroke:black;" d="M318,-98C286,-82 221,-48 186,-30"/><text text-anchor="middle" x="283" y="-59.2" style="font-size:10px; font-family:Verdana">(6,.1)  </text></g><g id="edge42" class="edge"><polygon style="fill: black; stroke: none; fill-opacity:0.3" points="143.008,-29.4818 147,-26 141.708,-26.2322 143.008,-29.4818" transform="translate(3,3)"/><path style="fill: none; stroke: black; stroke-opacity:0.3" d="M35,-174C36,-151 40,-113 59,-88 80,-58 118,-38 142,-28" transform="translate(3,3)"/><polygon style="fill:url(#black);stroke:black;;" points="143.008,-29.4818 147,-26 141.708,-26.2322 143.008,-29.4818"/><path style="fill:none;stroke:black;" d="M35,-174C36,-151 40,-113 59,-88 80,-58 118,-38 142,-28"/><text text-anchor="middle" x="86" y="-102.2" style="font-size:10px; font-family:Verdana">(12,.05)  </text></g><g id="edge44" class="edge"><polygon style="fill: black; stroke: none; fill-opacity:0.3" points="410.56,-272.303 406,-275 411.246,-275.735 410.56,-272.303" transform="translate(3,3)"/><path style="fill: none; stroke: black; stroke-opacity:0.3" d="M480,-210C479,-221 476,-233 469,-242 453,-259 429,-268 411,-274" transform="translate(3,3)"/><polygon style="fill:url(#black);stroke:black;;" points="410.56,-272.303 406,-275 411.246,-275.735 410.56,-272.303"/><path style="fill:none;stroke:black;" d="M480,-210C479,-221 476,-233 469,-242 453,-259 429,-268 411,-274"/><text text-anchor="middle" x="497" y="-231.2" style="font-size:10px; font-family:Verdana">(1,.05)  </text></g><g id="edge46" class="edge"><polygon style="fill: black; stroke: none; fill-opacity:0.3" points="355.292,-114.232 350,-114 353.992,-117.482 355.292,-114.232" transform="translate(3,3)"/><path style="fill: none; stroke: black; stroke-opacity:0.3" d="M466,-182C450,-171 424,-155 402,-142 386,-132 368,-123 355,-116" transform="translate(3,3)"/><polygon style="fill:url(#black);stroke:black;;" points="355.292,-114.232 350,-114 353.992,-117.482 355.292,-114.232"/><path style="fill:none;stroke:black;" d="M466,-182C450,-171 424,-155 402,-142 386,-132 368,-123 355,-116"/><text text-anchor="middle" x="445" y="-145.2" style="font-size:10px; font-family:Verdana">(2,.8)  </text></g></g>
</svg>
